<svg xmlns="http://www.w3.org/2000/svg" aria-hidden="true" style="position:absolute;width:0;height:0;overflow:hidden">
  <defs>
   
    <symbol id="icon-ac" width="32" height="32" viewBox="0 0 32 32" fill="none">
<g clip-path="url(#clip0_12164_565)">
<path d="M25 4C23.6739 4 22.4021 4.52678 21.4645 5.46447C20.5268 6.40215 20 7.67392 20 9C20 9.26522 19.8946 9.51957 19.7071 9.70711C19.5196 9.89464 19.2652 10 19 10C18.7348 10 18.4804 9.89464 18.2929 9.70711C18.1054 9.51957 18 9.26522 18 9C18 7.61553 18.4105 6.26215 19.1797 5.11101C19.9489 3.95986 21.0421 3.06266 22.3212 2.53284C23.6003 2.00303 25.0078 1.86441 26.3656 2.1345C27.7235 2.4046 28.9708 3.07128 29.9497 4.05025C30.9287 5.02922 31.5954 6.2765 31.8655 7.63437C32.1356 8.99223 31.997 10.3997 31.4672 11.6788C30.9373 12.9579 30.0401 14.0511 28.889 14.8203C27.7378 15.5895 26.3845 16 25 16H1C0.734784 16 0.48043 15.8946 0.292893 15.7071C0.105357 15.5196 0 15.2652 0 15C0 14.7348 0.105357 14.4804 0.292893 14.2929C0.48043 14.1054 0.734784 14 1 14H25C26.3261 14 27.5979 13.4732 28.5355 12.5355C29.4732 11.5979 30 10.3261 30 9C30 7.67392 29.4732 6.40215 28.5355 5.46447C27.5979 4.52678 26.3261 4 25 4ZM11 6C10.4696 6 9.96086 6.21071 9.58579 6.58579C9.21071 6.96086 9 7.46957 9 8C9 8.26522 8.89464 8.51957 8.70711 8.70711C8.51957 8.89464 8.26522 9 8 9C7.73478 9 7.48043 8.89464 7.29289 8.70711C7.10536 8.51957 7 8.26522 7 8C7 7.20887 7.2346 6.43552 7.67412 5.77772C8.11365 5.11992 8.73836 4.60723 9.46927 4.30448C10.2002 4.00173 11.0044 3.92252 11.7804 4.07686C12.5563 4.2312 13.269 4.61216 13.8284 5.17157C14.3878 5.73098 14.7688 6.44371 14.9231 7.21964C15.0775 7.99556 14.9983 8.79983 14.6955 9.53073C14.3928 10.2616 13.8801 10.8864 13.2223 11.3259C12.5645 11.7654 11.7911 12 11 12H1C0.734784 12 0.48043 11.8946 0.292893 11.7071C0.105357 11.5196 0 11.2652 0 11C0 10.7348 0.105357 10.4804 0.292893 10.2929C0.48043 10.1054 0.734784 10 1 10H11C11.5304 10 12.0391 9.78929 12.4142 9.41421C12.7893 9.03914 13 8.53043 13 8C13 7.46957 12.7893 6.96086 12.4142 6.58579C12.0391 6.21071 11.5304 6 11 6ZM0 19C0 18.7348 0.105357 18.4804 0.292893 18.2929C0.48043 18.1054 0.734784 18 1 18H21.084C22.2707 18 23.4307 18.3519 24.4174 19.0112C25.4041 19.6705 26.1732 20.6075 26.6273 21.7039C27.0814 22.8003 27.2002 24.0067 26.9687 25.1705C26.7372 26.3344 26.1658 27.4035 25.3266 28.2426C24.4875 29.0818 23.4184 29.6532 22.2545 29.8847C21.0907 30.1162 19.8843 29.9974 18.7879 29.5433C17.6915 29.0892 16.7545 28.3201 16.0952 27.3334C15.4359 26.3467 15.084 25.1867 15.084 24C15.084 23.7348 15.1894 23.4804 15.3769 23.2929C15.5644 23.1054 15.8188 23 16.084 23C16.3492 23 16.6036 23.1054 16.7911 23.2929C16.9786 23.4804 17.084 23.7348 17.084 24C17.084 24.7911 17.3186 25.5645 17.7581 26.2223C18.1976 26.8801 18.8224 27.3928 19.5533 27.6955C20.2842 27.9983 21.0884 28.0775 21.8644 27.9231C22.6403 27.7688 23.353 27.3878 23.9124 26.8284C24.4718 26.269 24.8528 25.5563 25.0071 24.7804C25.1615 24.0044 25.0823 23.2002 24.7795 22.4693C24.4768 21.7384 23.9641 21.1136 23.3063 20.6741C22.6485 20.2346 21.8751 20 21.084 20H1C0.734784 20 0.48043 19.8946 0.292893 19.7071C0.105357 19.5196 0 19.2652 0 19Z" fill="#101828"/>
</g>
<defs>
<clipPath id="clip0_12164_565">
<rect width="32" height="32" fill="white"/>
</clipPath>
</defs>
</symbol>
    <symbol id="icon-adults" viewBox="0 0 46 32">
      <path d="M12.952 27.619H6.666c-.381 0-.571-.19-.762-.381s-.381-.571-.191-.952c1.143-3.238 4-5.143 7.238-5.143 4 0 7.238-3.429 7.238-7.429s-3.238-7.81-7.238-7.81-7.238 3.429-7.238 7.619c0 1.905.762 3.809 1.905 5.143-2.476 1.333-4.381 3.429-5.524 6.286-.381 1.333-.19 3.048.762 4.381s2.286 2.095 3.81 2.095h6.286c1.143 0 1.905-.762 1.905-1.905s-.762-1.905-1.905-1.905zM9.524 13.524c0-2.095 1.524-3.619 3.429-3.619s3.429 1.714 3.429 3.619c0 2.095-1.524 3.619-3.429 3.619s-3.429-1.714-3.429-3.619z"/>
      <path d="M43.619 23.81c-1.333-3.619-4-6.286-7.048-7.81 1.714-1.524 2.666-3.81 2.666-6.476 0-4.952-3.809-8.952-8.381-8.952s-8.381 4-8.381 8.952c0 2.476.952 4.762 2.667 6.476-3.048 1.524-5.714 4.19-7.048 7.81-.952 1.714-.571 3.619.381 5.143s2.667 2.286 4.381 2.286h15.809c1.714 0 3.429-.952 4.381-2.286 1.143-1.524 1.333-3.429.571-5.143zM26.095 9.714c0-2.857 2.095-5.143 4.571-5.143s4.571 2.286 4.571 5.143-2.095 5.143-4.571 5.143c-2.476 0-4.571-2.476-4.571-5.143zm13.714 17.143c-.19.19-.571.762-1.143.762H22.857c-.762 0-1.143-.571-1.143-.762-.191-.19-.571-.952-.19-1.714 1.524-4 5.333-6.667 9.333-6.667s7.809 2.667 9.333 6.667c.19.762-.19 1.524-.381 1.714z"/>
    </symbol>
    <symbol id="icon-air" viewBox="0 0 32 32"  stroke="#101828" fill="none">
      <path stroke-linecap="round" stroke-linejoin="round" stroke-width="2.4" d="M28.571 1.143H3.428a2.287 2.287 0 0 0-2.285 2.285v11.429a2.287 2.287 0 0 0 2.285 2.285h25.143a2.287 2.287 0 0 0 2.286-2.285V3.428a2.283 2.283 0 0 0-2.286-2.285z"/>
      <path stroke-linecap="round" stroke-linejoin="round" stroke-width="2.4" d="M25.143 17.143v-4.571a2.283 2.283 0 0 0-2.286-2.285H9.143a2.287 2.287 0 0 0-2.285 2.285v4.571M5.714 28.572h.229a3.2 3.2 0 0 0 3.2-3.2v-2.514m17.143 5.714h-.229a3.2 3.2 0 0 1-3.2-3.2v-2.514M16 30.857v-8"/>
    </symbol>
   

    <symbol id="icon-alcove" width="32" height="32" viewBox="0 0 32 32" fill="none">
  <path d="M8 4V8H4V4H8ZM10 28V24C10 23.4696 9.78929 22.9609 9.41421 22.5858C9.03914 22.2107 8.53043 22 8 22H4C3.46957 22 2.96086 22.2107 2.58579 22.5858C2.21071 22.9609 2 23.4696 2 24V28C2 28.5304 2.21071 29.0391 2.58579 29.4142C2.96086 29.7893 3.46957 30 4 30H8C8.53043 30 9.03914 29.7893 9.41421 29.4142C9.78929 29.0391 10 28.5304 10 28ZM10 18V14C10 13.4696 9.78929 12.9609 9.41421 12.5858C9.03914 12.2107 8.53043 12 8 12H4C3.46957 12 2.96086 12.2107 2.58579 12.5858C2.21071 12.9609 2 13.4696 2 14V18C2 18.5304 2.21071 19.0391 2.58579 19.4142C2.96086 19.7893 3.46957 20 4 20H8C8.53043 20 9.03914 19.7893 9.41421 19.4142C9.78929 19.0391 10 18.5304 10 18ZM10 8V4C10 3.46957 9.78929 2.96086 9.41421 2.58579C9.03914 2.21071 8.53043 2 8 2H4C3.46957 2 2.96086 2.21071 2.58579 2.58579C2.21071 2.96086 2 3.46957 2 4V8C2 8.53043 2.21071 9.03914 2.58579 9.41421C2.96086 9.78929 3.46957 10 4 10H8C8.53043 10 9.03914 9.78929 9.41421 9.41421C9.78929 9.03914 10 8.53043 10 8ZM20 28V24C20 23.4696 19.7893 22.9609 19.4142 22.5858C19.0391 22.2107 18.5304 22 18 22H14C13.4696 22 12.9609 22.2107 12.5858 22.5858C12.2107 22.9609 12 23.4696 12 24V28C12 28.5304 12.2107 29.0391 12.5858 29.4142C12.9609 29.7893 13.4696 30 14 30H18C18.5304 30 19.0391 29.7893 19.4142 29.4142C19.7893 29.0391 20 28.5304 20 28ZM20 18V14C20 13.4696 19.7893 12.9609 19.4142 12.5858C19.0391 12.2107 18.5304 12 18 12H14C13.4696 12 12.9609 12.2107 12.5858 12.5858C12.2107 12.9609 12 13.4696 12 14V18C12 18.5304 12.2107 19.0391 12.5858 19.4142C12.9609 19.7893 13.4696 20 14 20H18C18.5304 20 19.0391 19.7893 19.4142 19.4142C19.7893 19.0391 20 18.5304 20 18ZM20 8V4C20 3.46957 19.7893 2.96086 19.4142 2.58579C19.0391 2.21071 18.5304 2 18 2H14C13.4696 2 12.9609 2.21071 12.5858 2.58579C12.2107 2.96086 12 3.46957 12 4V8C12 8.53043 12.2107 9.03914 12.5858 9.41421C12.9609 9.78929 13.4696 10 14 10H18C18.5304 10 19.0391 9.78929 19.4142 9.41421C19.7893 9.03914 20 8.53043 20 8ZM18 4V8H14V4H18ZM28 4V8H24V4H28ZM8 14V18H4V14H8ZM18 14V18H14V14H18ZM28 14H24V18H28V14ZM8 24V28H4V24H8ZM18 24V28H14V24H18ZM28 24V28H24V24H28ZM24 2C23.4696 2 22.9609 2.21071 22.5858 2.58579C22.2107 2.96086 22 3.46957 22 4V8C22 8.53043 22.2107 9.03914 22.5858 9.41421C22.9609 9.78929 23.4696 10 24 10H28C28.5304 10 29.0391 9.78929 29.4142 9.41421C29.7893 9.03914 30 8.53043 30 8V4C30 3.46957 29.7893 2.96086 29.4142 2.58579C29.0391 2.21071 28.5304 2 28 2H24ZM22 14C22 13.4696 22.2107 12.9609 22.5858 12.5858C22.9609 12.2107 23.4696 12 24 12H28C28.5304 12 29.0391 12.2107 29.4142 12.5858C29.7893 12.9609 30 13.4696 30 14V18C30 18.5304 29.7893 19.0391 29.4142 19.4142C29.0391 19.7893 28.5304 20 28 20H24C23.4696 20 22.9609 19.7893 22.5858 19.4142C22.2107 19.0391 22 18.5304 22 18V14ZM24 22C23.4696 22 22.9609 22.2107 22.5858 22.5858C22.2107 22.9609 22 23.4696 22 24V28C22 28.5304 22.2107 29.0391 22.5858 29.4142C22.9609 29.7893 23.4696 30 24 30H28C28.5304 30 29.0391 29.7893 29.4142 29.4142C29.7893 29.0391 30 28.5304 30 28V24C30 23.4696 29.7893 22.9609 29.4142 22.5858C29.0391 22.2107 28.5304 22 28 22H24Z" fill="#101828"/>
</symbol>
   

    <symbol id="icon-automatic" width="32" height="32" viewBox="0 0 32 32" fill="none">
  <path fill-rule="evenodd" clip-rule="evenodd" d="M12 7C12 6.20435 12.3161 5.44129 12.8787 4.87868C13.4413 4.31607 14.2044 4 15 4H17C17.7956 4 18.5587 4.31607 19.1213 4.87868C19.6839 5.44129 20 6.20435 20 7V9C20 9.79565 19.6839 10.5587 19.1213 11.1213C18.5587 11.6839 17.7956 12 17 12V14H28C28.2652 14 28.5196 14.1054 28.7071 14.2929C28.8946 14.4804 29 14.7348 29 15V17C29 17.2652 28.8946 17.5196 28.7071 17.7071C28.5196 17.8946 28.2652 18 28 18C27.7348 18 27.4804 17.8946 27.2929 17.7071C27.1054 17.5196 27 17.2652 27 17V16H17V17C17 17.2652 16.8946 17.5196 16.7071 17.7071C16.5196 17.8946 16.2652 18 16 18C15.7348 18 15.4804 17.8946 15.2929 17.7071C15.1054 17.5196 15 17.2652 15 17V16H5V17C5 17.2652 4.89464 17.5196 4.70711 17.7071C4.51957 17.8946 4.26522 18 4 18C3.73478 18 3.48043 17.8946 3.29289 17.7071C3.10536 17.5196 3 17.2652 3 17V15C3 14.7348 3.10536 14.4804 3.29289 14.2929C3.48043 14.1054 3.73478 14 4 14H15V12C14.2044 12 13.4413 11.6839 12.8787 11.1213C12.3161 10.5587 12 9.79565 12 9V7ZM17 10C17.2652 10 17.5196 9.89464 17.7071 9.70711C17.8946 9.51957 18 9.26522 18 9V7C18 6.73478 17.8946 6.48043 17.7071 6.29289C17.5196 6.10536 17.2652 6 17 6H15C14.7348 6 14.4804 6.10536 14.2929 6.29289C14.1054 6.48043 14 6.73478 14 7V9C14 9.26522 14.1054 9.51957 14.2929 9.70711C14.4804 9.89464 14.7348 10 15 10H17ZM0 23C0 22.2044 0.31607 21.4413 0.87868 20.8787C1.44129 20.3161 2.20435 20 3 20H5C5.79565 20 6.55871 20.3161 7.12132 20.8787C7.68393 21.4413 8 22.2044 8 23V25C8 25.7956 7.68393 26.5587 7.12132 27.1213C6.55871 27.6839 5.79565 28 5 28H3C2.20435 28 1.44129 27.6839 0.87868 27.1213C0.31607 26.5587 0 25.7956 0 25L0 23ZM3 22C2.73478 22 2.48043 22.1054 2.29289 22.2929C2.10536 22.4804 2 22.7348 2 23V25C2 25.2652 2.10536 25.5196 2.29289 25.7071C2.48043 25.8946 2.73478 26 3 26H5C5.26522 26 5.51957 25.8946 5.70711 25.7071C5.89464 25.5196 6 25.2652 6 25V23C6 22.7348 5.89464 22.4804 5.70711 22.2929C5.51957 22.1054 5.26522 22 5 22H3ZM12 23C12 22.2044 12.3161 21.4413 12.8787 20.8787C13.4413 20.3161 14.2044 20 15 20H17C17.7956 20 18.5587 20.3161 19.1213 20.8787C19.6839 21.4413 20 22.2044 20 23V25C20 25.7956 19.6839 26.5587 19.1213 27.1213C18.5587 27.6839 17.7956 28 17 28H15C14.2044 28 13.4413 27.6839 12.8787 27.1213C12.3161 26.5587 12 25.7956 12 25V23ZM15 22C14.7348 22 14.4804 22.1054 14.2929 22.2929C14.1054 22.4804 14 22.7348 14 23V25C14 25.2652 14.1054 25.5196 14.2929 25.7071C14.4804 25.8946 14.7348 26 15 26H17C17.2652 26 17.5196 25.8946 17.7071 25.7071C17.8946 25.5196 18 25.2652 18 25V23C18 22.7348 17.8946 22.4804 17.7071 22.2929C17.5196 22.1054 17.2652 22 17 22H15ZM24 23C24 22.2044 24.3161 21.4413 24.8787 20.8787C25.4413 20.3161 26.2044 20 27 20H29C29.7956 20 30.5587 20.3161 31.1213 20.8787C31.6839 21.4413 32 22.2044 32 23V25C32 25.7956 31.6839 26.5587 31.1213 27.1213C30.5587 27.6839 29.7956 28 29 28H27C26.2044 28 25.4413 27.6839 24.8787 27.1213C24.3161 26.5587 24 25.7956 24 25V23ZM27 22C26.7348 22 26.4804 22.1054 26.2929 22.2929C26.1054 22.4804 26 22.7348 26 23V25C26 25.2652 26.1054 25.5196 26.2929 25.7071C26.4804 25.8946 26.7348 26 27 26H29C29.2652 26 29.5196 25.8946 29.7071 25.7071C29.8946 25.5196 30 25.2652 30 25V23C30 22.7348 29.8946 22.4804 29.7071 22.2929C29.5196 22.1054 29.2652 22 29 22H27Z" fill="#101828"/>
</symbol>
    <symbol id="icon-bed" viewBox="0 0 32 32"  stroke="#101828" fill="none">
      <path stroke-linecap="round" stroke-linejoin="round" stroke-width="2.24" d="M3 26v-7a4.012 4.012 0 0 1 4-4h18a4.012 4.012 0 0 1 4 4v7m-5-11H6V8.5A2.504 2.504 0 0 1 8.5 6h15A2.504 2.504 0 0 1 26 8.5V15h-2z"/>
      <path stroke-linecap="round" stroke-linejoin="round" stroke-width="2.24" d="M3 26v-.5A1.504 1.504 0 0 1 4.5 24h23a1.504 1.504 0 0 1 1.5 1.5v.5M7 15v-1a2.002 2.002 0 0 1 2-2h5a2.002 2.002 0 0 1 2 2m0 0v1m0-1a2.008 2.008 0 0 1 2-2h5a2.002 2.002 0 0 1 2 2v1"/>
    </symbol>
    <symbol id="icon-cd" viewBox="0 0 32 32">
      <path stroke-width="2.4" d="M16 28c6.627 0 12-5.373 12-12S22.627 4 16 4 4 9.373 4 16s5.373 12 12 12z"/>
      <path stroke-linecap="round" stroke-width="2.4" d="M8.667 16A7.333 7.333 0 0 1 16 8.667"/>
      <path stroke-width="2.4" d="M16 19.333a3.333 3.333 0 1 0 0-6.665 3.333 3.333 0 0 0 0 6.665z"/>
    </symbol>
    <symbol id="icon-date" viewBox="0 0 32 32">
      <path stroke-linecap="round" stroke-linejoin="round" stroke-width="2.4" d="M25.333 5.333H6.666A2.667 2.667 0 0 0 3.999 8v18.667a2.667 2.667 0 0 0 2.667 2.667h18.667A2.667 2.667 0 0 0 28 26.667V8a2.667 2.667 0 0 0-2.667-2.667zM21.333 2.667V8M10.667 2.667V8M4 13.333h24"/>
    </symbol>
    <symbol id="icon-freezer" viewBox="0 0 32 32">
      <path stroke-linecap="round" stroke-linejoin="round" stroke-width="2.08" d="M23.4 3H8.607a2 2 0 0 0-2 2v20.387a2 2 0 0 0 2 2H23.4a2 2 0 0 0 2-2V5a2 2 0 0 0-2-2z"/>
      <path stroke-linecap="round" stroke-linejoin="round" stroke-width="2.08" d="M6.607 13.127h18.787m-15.081-2.56v-4.04m0 12.913V15.4M8.427 27.387v.7a.911.911 0 0 0 .907.913h1.647a.911.911 0 0 0 .914-.914v-.7m8.205.001v.7a.913.913 0 0 0 .914.914h1.653a.913.913 0 0 0 .914-.914v-.7"/>
    </symbol>
    <symbol id="icon-gas" viewBox="0 0 32 32">
      <path d="M25.072 13.991c-.368-.453-.816-.846-1.232-1.239-1.072-.907-2.288-1.556-3.311-2.508-2.384-2.206-2.912-5.848-1.392-8.644-1.52.348-2.848 1.133-3.983 1.995-4.143 3.143-5.775 8.689-3.823 13.449.064.151.128.302.128.499 0 .332-.24.635-.56.756-.368.151-.752.06-1.056-.181a.901.901 0 0 1-.224-.257c-1.808-2.161-2.096-5.259-.88-7.737-2.672 2.055-4.127 5.531-3.919 8.81.096.756.192 1.511.464 2.267.224.907.656 1.813 1.136 2.614 1.728 2.614 4.719 4.488 7.935 4.866 3.423.408 7.087-.181 9.71-2.418 2.927-2.508 3.951-6.528 2.448-9.974l-.208-.393c-.336-.695-1.232-1.904-1.232-1.904zm-5.055 9.521c-.448.363-1.184.756-1.76.907-1.792.604-3.583-.242-4.639-1.239 1.904-.423 3.039-1.753 3.375-3.098.272-1.209-.24-2.206-.448-3.37-.192-1.118-.16-2.07.272-3.113.304.574.624 1.148 1.008 1.602 1.232 1.511 3.167 2.176 3.583 4.231.064.212.096.423.096.65.048 1.239-.528 2.599-1.488 3.43z"/>
    </symbol>
    

    <symbol id="icon-heart" width="26" height="24" viewBox="0 0 26 24" fill="none" >
  <path d="M13 9.854L11.659 7.1705C11.326 6.506 10.7485 5.5505 9.931 4.778C9.127 4.0175 8.164 3.5 7 3.5C4.486 3.5 2.5 5.489 2.5 7.88C2.5 9.6965 3.331 10.979 5.302 12.935C5.8075 13.436 6.3835 13.9775 7.021 14.5745C8.683 16.1345 10.75 18.0755 13 20.6705C15.25 18.0755 17.317 16.1345 18.979 14.5745C19.6165 13.9775 20.194 13.4345 20.698 12.935C22.669 10.979 23.5 9.6965 23.5 7.88C23.5 5.489 21.514 3.5 19 3.5C17.8345 3.5 16.873 4.0175 16.069 4.778C15.2515 5.5505 14.674 6.506 14.341 7.1705L13 9.854ZM13.588 22.292C13.5158 22.3776 13.4257 22.4463 13.3242 22.4935C13.2226 22.5407 13.112 22.5651 13 22.5651C12.888 22.5651 12.7774 22.5407 12.6758 22.4935C12.5743 22.4463 12.4842 22.3776 12.412 22.292C10.0105 19.439 7.837 17.399 6.0475 15.7205C2.95 12.812 1 10.9835 1 7.88C1 4.6325 3.685 2 7 2C9.4 2 11.0785 3.575 12.106 5.012C12.496 5.5595 12.793 6.086 13 6.5C13.2597 5.982 13.5586 5.48456 13.894 5.012C14.9215 3.5735 16.6 2 19 2C22.315 2 25 4.6325 25 7.88C25 10.9835 23.05 12.812 19.9525 15.7205C18.163 17.4005 15.9895 19.442 13.588 22.292Z" fill="#101828"/>
</symbol>

    <symbol id="icon-hob" viewBox="0 0 32 32">
      <path stroke-width="2.4" d="M12 6.667h16a1.335 1.335 0 0 1 1.334 1.334v17.333A1.335 1.335 0 0 1 28 26.668H12m0-20.001H4a1.33 1.33 0 0 0-1.333 1.334v17.333A1.333 1.333 0 0 0 4 26.668h8m0-20.001v20"/>
      <path stroke-linecap="round" stroke-linejoin="round" stroke-width="2.4" d="M7.333 11.333V14m17.334-3.333-8 11.333"/>
      <path d="M8.667 18A1.333 1.333 0 1 0 6 18a1.333 1.333 0 0 0 2.667 0zM8.667 22A1.333 1.333 0 1 0 6 22a1.333 1.333 0 0 0 2.667 0z"/>
    </symbol>
   
    <symbol id="icon-integrated" width="32" height="32" viewBox="0 0 32 32" fill="none">
  <path d="M2 5C2 4.20435 2.31607 3.44129 2.87868 2.87868C3.44129 2.31607 4.20435 2 5 2H11C11.7956 2 12.5587 2.31607 13.1213 2.87868C13.6839 3.44129 14 4.20435 14 5V11C14 11.7956 13.6839 12.5587 13.1213 13.1213C12.5587 13.6839 11.7956 14 11 14H5C4.20435 14 3.44129 13.6839 2.87868 13.1213C2.31607 12.5587 2 11.7956 2 11V5ZM5 4C4.73478 4 4.48043 4.10536 4.29289 4.29289C4.10536 4.48043 4 4.73478 4 5V11C4 11.2652 4.10536 11.5196 4.29289 11.7071C4.48043 11.8946 4.73478 12 5 12H11C11.2652 12 11.5196 11.8946 11.7071 11.7071C11.8946 11.5196 12 11.2652 12 11V5C12 4.73478 11.8946 4.48043 11.7071 4.29289C11.5196 4.10536 11.2652 4 11 4H5ZM18 5C18 4.20435 18.3161 3.44129 18.8787 2.87868C19.4413 2.31607 20.2044 2 21 2H27C27.7956 2 28.5587 2.31607 29.1213 2.87868C29.6839 3.44129 30 4.20435 30 5V11C30 11.7956 29.6839 12.5587 29.1213 13.1213C28.5587 13.6839 27.7956 14 27 14H21C20.2044 14 19.4413 13.6839 18.8787 13.1213C18.3161 12.5587 18 11.7956 18 11V5ZM21 4C20.7348 4 20.4804 4.10536 20.2929 4.29289C20.1054 4.48043 20 4.73478 20 5V11C20 11.2652 20.1054 11.5196 20.2929 11.7071C20.4804 11.8946 20.7348 12 21 12H27C27.2652 12 27.5196 11.8946 27.7071 11.7071C27.8946 11.5196 28 11.2652 28 11V5C28 4.73478 27.8946 4.48043 27.7071 4.29289C27.5196 4.10536 27.2652 4 27 4H21ZM2 21C2 20.2044 2.31607 19.4413 2.87868 18.8787C3.44129 18.3161 4.20435 18 5 18H11C11.7956 18 12.5587 18.3161 13.1213 18.8787C13.6839 19.4413 14 20.2044 14 21V27C14 27.7956 13.6839 28.5587 13.1213 29.1213C12.5587 29.6839 11.7956 30 11 30H5C4.20435 30 3.44129 29.6839 2.87868 29.1213C2.31607 28.5587 2 27.7956 2 27V21ZM5 20C4.73478 20 4.48043 20.1054 4.29289 20.2929C4.10536 20.4804 4 20.7348 4 21V27C4 27.2652 4.10536 27.5196 4.29289 27.7071C4.48043 27.8946 4.73478 28 5 28H11C11.2652 28 11.5196 27.8946 11.7071 27.7071C11.8946 27.5196 12 27.2652 12 27V21C12 20.7348 11.8946 20.4804 11.7071 20.2929C11.5196 20.1054 11.2652 20 11 20H5ZM18 21C18 20.2044 18.3161 19.4413 18.8787 18.8787C19.4413 18.3161 20.2044 18 21 18H27C27.7956 18 28.5587 18.3161 29.1213 18.8787C29.6839 19.4413 30 20.2044 30 21V27C30 27.7956 29.6839 28.5587 29.1213 29.1213C28.5587 29.6839 27.7956 30 27 30H21C20.2044 30 19.4413 29.6839 18.8787 29.1213C18.3161 28.5587 18 27.7956 18 27V21ZM21 20C20.7348 20 20.4804 20.1054 20.2929 20.2929C20.1054 20.4804 20 20.7348 20 21V27C20 27.2652 20.1054 27.5196 20.2929 27.7071C20.4804 27.8946 20.7348 28 21 28H27C27.2652 28 27.5196 27.8946 27.7071 27.7071C27.8946 27.5196 28 27.2652 28 27V21C28 20.7348 27.8946 20.4804 27.7071 20.2929C27.5196 20.1054 27.2652 20 27 20H21Z" fill="#101828"/>
</symbol>

    <symbol id="icon-kitchen" width="32" height="32" viewBox="0 0 33 32" fill="none">
  <path fill-rule="evenodd" clip-rule="evenodd" d="M1.50009 12C1.35046 12.0001 1.20275 12.0337 1.06784 12.0984C0.93294 12.1632 0.814284 12.2574 0.720622 12.3741C0.626959 12.4907 0.560679 12.627 0.526666 12.7727C0.492653 12.9184 0.491774 13.0699 0.524095 13.216L3.82809 28.084C4.07472 29.1945 4.69264 30.1877 5.57986 30.8997C6.46707 31.6116 7.57054 31.9998 8.7081 32H20.2921C21.4297 31.9998 22.5331 31.6116 23.4203 30.8997C24.3076 30.1877 24.9255 29.1945 25.1721 28.084L25.4341 26.904C26.9639 27.1901 28.5451 26.8706 29.8438 26.0129C31.1425 25.1552 32.0571 23.8264 32.3945 22.307C32.7319 20.7876 32.4657 19.1966 31.6521 17.8698C30.8386 16.543 29.5413 15.5843 28.0341 15.196L28.4761 13.216C28.5084 13.0699 28.5075 12.9184 28.4735 12.7727C28.4395 12.627 28.3732 12.4907 28.2796 12.3741C28.1859 12.2574 28.0673 12.1632 27.9323 12.0984C27.7974 12.0337 27.6497 12.0001 27.5001 12H1.50009ZM26.5001 25C26.2884 25.0001 26.0771 24.9834 25.8681 24.95L27.6021 17.154C28.5271 17.4219 29.3245 18.0144 29.8479 18.8227C30.3714 19.631 30.5858 20.601 30.4518 21.5546C30.3179 22.5083 29.8446 23.3817 29.1187 24.0145C28.3928 24.6474 27.4631 24.9973 26.5001 25ZM5.7801 27.65L2.74609 14H26.2541L23.2201 27.65C23.0722 28.3164 22.7015 28.9124 22.1691 29.3396C21.6368 29.7669 20.9747 29.9998 20.2921 30H8.7081C8.02551 29.9998 7.36338 29.7669 6.83105 29.3396C6.29871 28.9124 5.92799 28.3164 5.7801 27.65Z" fill="#101828"/>
  <path d="M9.3 1.6L9.294 1.608L9.266 1.646C9.12048 1.84624 8.98433 2.05313 8.858 2.266C8.75068 2.43664 8.65641 2.61515 8.576 2.8C8.524 2.92 8.508 2.984 8.502 3.006V3.014C8.52506 3.1908 8.58724 3.36024 8.684 3.51C8.834 3.776 9.04 4.054 9.3 4.4L9.32 4.424C9.556 4.74 9.84 5.118 10.06 5.51C10.284 5.91 10.5 6.42 10.5 7C10.5 7.376 10.37 7.736 10.262 7.988C10.1464 8.25615 10.0114 8.51551 9.858 8.764C9.7011 9.02626 9.53225 9.2812 9.352 9.528L9.316 9.578L9.306 9.594L9.302 9.598C9.14314 9.81043 8.90639 9.95106 8.64384 9.98895C8.38129 10.0268 8.11444 9.95886 7.902 9.8C7.68956 9.64113 7.54893 9.40438 7.51105 9.14183C7.47317 8.87928 7.54114 8.61244 7.7 8.4L7.706 8.392L7.734 8.354C7.87952 8.15375 8.01567 7.94687 8.142 7.734C8.24932 7.56336 8.34359 7.38485 8.424 7.2C8.476 7.08 8.492 7.016 8.498 6.994C8.47671 6.81459 8.41517 6.64231 8.318 6.49C8.13235 6.17971 7.92588 5.88236 7.7 5.6L7.68 5.576C7.40979 5.23062 7.16259 4.86783 6.94 4.49C6.66759 4.03945 6.51604 3.52625 6.5 3C6.5 2.624 6.63 2.264 6.738 2.012C6.856 1.736 7.006 1.464 7.142 1.236C7.30088 0.974982 7.46967 0.72013 7.648 0.471998L7.698 0.401999C7.85686 0.18956 8.09361 0.0489314 8.35616 0.0110491C8.61872 -0.0268333 8.88556 0.0411339 9.098 0.199999C9.31044 0.358863 9.45107 0.595612 9.48895 0.858163C9.52683 1.12071 9.45886 1.38756 9.3 1.6ZM15.3 1.6L15.294 1.608L15.266 1.646C15.1205 1.84624 14.9843 2.05313 14.858 2.266C14.7507 2.43664 14.6564 2.61515 14.576 2.8C14.524 2.92 14.508 2.984 14.502 3.006V3.014C14.5251 3.1908 14.5872 3.36024 14.684 3.51C14.834 3.776 15.04 4.054 15.3 4.4L15.32 4.424C15.556 4.74 15.84 5.118 16.06 5.51C16.284 5.91 16.5 6.42 16.5 7C16.5 7.376 16.37 7.736 16.262 7.988C16.1464 8.25615 16.0114 8.51551 15.858 8.764C15.7011 9.02626 15.5323 9.2812 15.352 9.528L15.316 9.578L15.306 9.594L15.302 9.598C15.1431 9.81043 14.9064 9.95106 14.6438 9.98895C14.3813 10.0268 14.1144 9.95886 13.902 9.8C13.6896 9.64113 13.5489 9.40438 13.5111 9.14183C13.4732 8.87928 13.5411 8.61244 13.7 8.4L13.706 8.392L13.734 8.354C13.8795 8.15375 14.0157 7.94687 14.142 7.734C14.2493 7.56336 14.3436 7.38485 14.424 7.2C14.476 7.08 14.492 7.016 14.498 6.994C14.4767 6.81459 14.4152 6.64231 14.318 6.49C14.1323 6.17971 13.9259 5.88236 13.7 5.6L13.68 5.576C13.4098 5.23062 13.1626 4.86783 12.94 4.49C12.6676 4.03945 12.516 3.52625 12.5 3C12.5 2.624 12.63 2.264 12.738 2.012C12.856 1.736 13.006 1.464 13.142 1.236C13.3009 0.974982 13.4697 0.72013 13.648 0.471998L13.698 0.401999C13.8569 0.18956 14.0936 0.0489314 14.3562 0.011049C14.6187 -0.0268333 14.8856 0.0411339 15.098 0.199999C15.3104 0.358863 15.4511 0.595612 15.4889 0.858163C15.5268 1.12071 15.4589 1.38756 15.3 1.6ZM21.3 1.6L21.294 1.608L21.266 1.646C21.1205 1.84624 20.9843 2.05313 20.858 2.266C20.7507 2.43664 20.6564 2.61515 20.576 2.8C20.524 2.92 20.508 2.984 20.502 3.006V3.014C20.5251 3.1908 20.5872 3.36024 20.684 3.51C20.834 3.776 21.04 4.054 21.3 4.4L21.32 4.424C21.556 4.74 21.84 5.118 22.06 5.51C22.284 5.91 22.5 6.42 22.5 7C22.5 7.376 22.37 7.736 22.262 7.988C22.1464 8.25615 22.0114 8.51551 21.858 8.764C21.7017 9.02622 21.5336 9.28116 21.354 9.528L21.316 9.578L21.306 9.594L21.302 9.598C21.1431 9.81043 20.9064 9.95106 20.6438 9.98895C20.3813 10.0268 20.1144 9.95886 19.902 9.8C19.6896 9.64113 19.5489 9.40438 19.5111 9.14183C19.4732 8.87928 19.5411 8.61244 19.7 8.4L19.706 8.392L19.734 8.354C19.8795 8.15375 20.0157 7.94687 20.142 7.734C20.2493 7.56336 20.3436 7.38485 20.424 7.2C20.476 7.08 20.492 7.016 20.498 6.994C20.4767 6.81459 20.4152 6.64231 20.318 6.49C20.1324 6.17971 19.9259 5.88236 19.7 5.6L19.68 5.576C19.4098 5.23062 19.1626 4.86783 18.94 4.49C18.6676 4.03945 18.516 3.52625 18.5 3C18.5 2.624 18.63 2.264 18.738 2.012C18.856 1.736 19.006 1.464 19.142 1.236C19.3009 0.974982 19.4697 0.72013 19.648 0.471998L19.698 0.401999C19.8569 0.18956 20.0936 0.0489314 20.3562 0.011049C20.6187 -0.0268333 20.8856 0.0411339 21.098 0.199999C21.3104 0.358863 21.4511 0.595612 21.4889 0.858163C21.5268 1.12071 21.4589 1.38756 21.3 1.6Z" fill="#101828"/>
</symbol>
    <symbol id="icon-location" width="20" height="20" viewBox="0 0 20 20" fill="none">
      <path fill-rule="evenodd" clip-rule="evenodd" d="M19.7712 0.141029C19.8428 0.199699 19.9005 0.273527 19.94 0.357185C19.9796 0.440842 20.0001 0.53224 20 0.624779V18.1248C19.9999 18.2692 19.9498 18.4092 19.8582 18.5208C19.7666 18.6325 19.6391 18.709 19.4975 18.7373L13.2475 19.9873C13.1666 20.0034 13.0834 20.0034 13.0025 19.9873L6.875 18.7623L0.7475 19.9873C0.656861 20.0054 0.563332 20.0032 0.473651 19.9808C0.38397 19.9584 0.30037 19.9164 0.228874 19.8578C0.157378 19.7993 0.0997667 19.7255 0.0601897 19.642C0.0206127 19.5585 5.58159e-05 19.4672 0 19.3748L0 1.87478C8.72276e-05 1.73035 0.0501951 1.5904 0.141804 1.47874C0.233413 1.36708 0.360869 1.29059 0.5025 1.26228L6.7525 0.0122789C6.83337 -0.00388454 6.91663 -0.00388454 6.9975 0.0122789L13.125 1.23728L19.2525 0.0122789C19.3431 -0.00595135 19.4366 -0.00385945 19.5263 0.0184039C19.616 0.0406672 19.6997 0.0825478 19.7712 0.141029ZM12.5 2.38728L7.5 1.38728V17.6123L12.5 18.6123V2.38728ZM13.75 18.6123L18.75 17.6123V1.38728L13.75 2.38728V18.6123ZM6.25 17.6123V1.38728L1.25 2.38728V18.6123L6.25 17.6123Z" fill="#101828"/>
    </symbol>
    <symbol id="icon-location16" width="16" height="16" viewBox="0 0 16 16" fill="none">
  <g clip-path="url(#clip0_12164_424)">
    <path fill-rule="evenodd" clip-rule="evenodd" d="M15.817 0.112823C15.8743 0.159759 15.9204 0.218822 15.952 0.285748C15.9837 0.352674 16 0.425792 16 0.499823V14.4998C15.9999 14.6154 15.9598 14.7273 15.8866 14.8167C15.8133 14.906 15.7113 14.9672 15.598 14.9898L10.598 15.9898C10.5333 16.0028 10.4667 16.0028 10.402 15.9898L5.5 15.0098L0.598 15.9898C0.525489 16.0043 0.450665 16.0025 0.378921 15.9846C0.307176 15.9667 0.240296 15.9331 0.183099 15.8863C0.125903 15.8394 0.0798134 15.7804 0.0481518 15.7136C0.0164902 15.6468 4.46527e-05 15.5738 0 15.4998L0 1.49982C6.9782e-05 1.38428 0.0401561 1.27232 0.113443 1.18299C0.186731 1.09366 0.288695 1.03247 0.402 1.00982L5.402 0.00982311C5.46669 -0.00310763 5.53331 -0.00310763 5.598 0.00982311L10.5 0.989823L15.402 0.00982311C15.4745 -0.00476108 15.5493 -0.00308756 15.6211 0.0147231C15.6928 0.0325338 15.7597 0.0660382 15.817 0.112823ZM10 1.90982L6 1.10982V14.0898L10 14.8898V1.90982ZM11 14.8898L15 14.0898V1.10982L11 1.90982V14.8898ZM5 14.0898V1.10982L1 1.90982V14.8898L5 14.0898Z" fill="#101828"/>
  </g>
  <defs>
    <clipPath id="clip0_12164_424">
      <rect width="16" height="16" fill="white"/>
    </clipPath>
  </defs>
</symbol>
    <symbol id="icon-microwave" viewBox="0 0 32 32">
      <path stroke-linecap="round" stroke-linejoin="round" stroke-width="2.24" d="M29.714 5.714H2.285a1.14 1.14 0 0 0-1.143 1.143v18.286a1.14 1.14 0 0 0 1.143 1.143h27.429a1.14 1.14 0 0 0 1.143-1.143V6.857a1.14 1.14 0 0 0-1.143-1.143z"/>
      <path stroke-linecap="round" stroke-linejoin="round" stroke-width="2.24" d="M25.143 11.428h1.143M25.143 16h1.143m-6.858-5.714H6.857a1.14 1.14 0 0 0-1.143 1.143v9.143a1.14 1.14 0 0 0 1.143 1.143h12.571a1.14 1.14 0 0 0 1.143-1.143v-9.143a1.14 1.14 0 0 0-1.143-1.143z"/>
    </symbol>
    <symbol id="icon-petrol" viewBox="0 0 32 32">
      <path d="m26.36 9.64.013-.013-4.96-4.96L20 6.08l2.813 2.813a3.324 3.324 0 0 0-1.17 5.464 3.333 3.333 0 0 0 2.357.976c.48 0 .92-.107 1.333-.28v9.613a1.335 1.335 0 0 1-2.277.943 1.335 1.335 0 0 1-.391-.943v-6a2.668 2.668 0 0 0-2.667-2.667h-1.333V6.666a2.668 2.668 0 0 0-2.667-2.667h-8a2.668 2.668 0 0 0-2.667 2.667v21.333h13.333v-10h2v6.667a3.333 3.333 0 1 0 6.667-.001V11.998c0-.92-.373-1.76-.973-2.36zM16 18v7.333H8V16h8v2zm0-4.667H8V6.666h8v6.667zm8 0a1.333 1.333 0 1 1-.002-2.665A1.333 1.333 0 0 1 24 13.333z"/>
    </symbol>
    <symbol id="icon-radio" viewBox="0 0 32 32">
      <path stroke-width="2.08" d="M2.667 18.667c0-5.028 0-7.543 1.563-9.104C5.791 8 8.306 8 13.334 8h5.333c5.028 0 7.543 0 9.104 1.563 1.563 1.561 1.563 4.076 1.563 9.104s0 7.543-1.563 9.104c-1.561 1.563-4.076 1.563-9.104 1.563h-5.333c-5.028 0-7.543 0-9.104-1.563-1.563-1.561-1.563-4.076-1.563-9.104z"/>
      <path stroke-width="2.08" d="M6.667 14.667A2.668 2.668 0 0 1 9.334 12h13.333a2.668 2.668 0 0 1 0 5.334H9.334a2.668 2.668 0 0 1-2.667-2.667zm5.333 8a2 2 0 1 1-4.001-.001 2 2 0 0 1 4.001.001z"/>
      <path stroke-linecap="round" stroke-width="2.08" d="M20 15.333v2m-2.667 5.334H24M8.667 8 20 2.667"/>
    </symbol>
    <symbol id="icon-route" viewBox="0 0 32 32">
      <path d="M6.667 4a2.667 2.667 0 1 0 0 5.334 2.667 2.667 0 0 0 0-5.334zM1.333 6.667a5.333 5.333 0 1 1 10.666 0 5.333 5.333 0 0 1-10.666 0zM25.333 22.667a2.667 2.667 0 1 0 0 5.334 2.667 2.667 0 0 0 0-5.334zM20 25.333a5.333 5.333 0 1 1 10.667 0 5.333 5.333 0 0 1-10.667 0z"/>
      <path d="M13.333 6.667c0-.736.597-1.333 1.333-1.333h8.4c4.13 0 5.62 5.404 1.987 7.429L9.58 21.567a1.295 1.295 0 0 0 .686 2.434h7.067a1.333 1.333 0 0 1 0 2.666h-7.067c-4.13 0-5.619-5.404-1.987-7.429l15.473-8.804A1.295 1.295 0 0 0 23.066 8h-8.4a1.333 1.333 0 0 1-1.333-1.333z"/>
    </symbol>
    <symbol id="icon-shower" viewBox="0 0 32 32">
      <path stroke-linecap="round" stroke-linejoin="round" stroke-width="2.56" d="m5.333 5.333 3.333 3.333M18 8.667a6.6 6.6 0 0 0-9.334 9.334M20 6.667 6.667 20m12 2.667v.013m-5.334-1.347v.013m4-4.013v.013m4-4.013v.013m-6.666 13.321v.013m8-8.013v.013m4-4.013v.013"/>
    </symbol>
    <symbol id="icon-toilet" viewBox="0 0 32 32">
      <path d="M24 4c1.939 0 3.269 1.647 4.04 3.313.761 1.653 1.224 3.811 1.287 6.145l.007.541v12.667a1.343 1.343 0 0 1-.409.962 1.352 1.352 0 0 1-.978.371l-.165-.019-3.781-.629-3.781.629a1.33 1.33 0 0 1-.483-.008l-.157-.041-3.579-1.193-3.579 1.193a1.327 1.327 0 0 1-1.135-.138 1.323 1.323 0 0 1-.61-.968l-.009-.159v-3.903c-.708.733-1.595 1.236-2.667 1.236-1.939 0-3.269-1.647-4.04-3.313-.819-1.78-1.293-4.145-1.293-6.687s.473-4.907 1.293-6.687c.735-1.592 1.981-3.164 3.78-3.303l.26-.011h16zm0 2.667H11.709c.12.213.229.429.329.647.821 1.78 1.295 4.145 1.295 6.687v10.817l2.245-.749c.274-.091.569-.091.843 0l3.687 1.229 3.673-.613c.144-.024.293-.024.437 0l2.448.409V14.001c0-2.245-.423-4.213-1.049-5.569C24.94 6.961 24.27 6.668 24 6.668zm-16 0c-.271 0-.94.293-1.617 1.764C5.756 9.787 5.334 11.755 5.334 14s.423 4.213 1.049 5.569C7.06 21.04 7.73 21.333 8 21.333s.94-.293 1.617-1.764c.627-1.356 1.049-3.324 1.049-5.569s-.423-4.213-1.049-5.569C8.94 6.96 8.27 6.667 8 6.667zm0 4.666c.736 0 1.333 1.193 1.333 2.667S8.736 16.667 8 16.667 6.667 15.474 6.667 14 7.264 11.333 8 11.333z"/>
    </symbol>
    

    <symbol id="icon-tv" width="32" height="32" viewBox="0 0 32 32" fill="none">
  <path d="M0 8C0 8 0 4 4 4H28C28 4 32 4 32 8V20C32 20 32 24 28 24H20C20 25.3333 20.1667 26.3333 20.5 27H22C22.2652 27 22.5196 27.1054 22.7071 27.2929C22.8946 27.4804 23 27.7348 23 28C23 28.2652 22.8946 28.5196 22.7071 28.7071C22.5196 28.8946 22.2652 29 22 29H10C9.73478 29 9.48043 28.8946 9.29289 28.7071C9.10536 28.5196 9 28.2652 9 28C9 27.7348 9.10536 27.4804 9.29289 27.2929C9.48043 27.1054 9.73478 27 10 27H11.5C11.8333 26.3333 12 25.3333 12 24H4C4 24 0 24 0 20V8ZM2.796 6.29C2.57644 6.44309 2.4012 6.65145 2.288 6.894C2.11952 7.24697 2.02168 7.62948 2 8.02V20C2 20.65 2.156 21.004 2.29 21.204C2.43 21.412 2.63133 21.5813 2.894 21.712C3.23168 21.8736 3.59663 21.9706 3.97 21.998L4.02 22H28C28.65 22 29.004 21.844 29.204 21.71C29.4236 21.5569 29.5988 21.3486 29.712 21.106C29.8736 20.7683 29.9706 20.4034 29.998 20.03L30 19.98V8C30 7.35 29.844 6.996 29.71 6.796C29.5569 6.57644 29.3486 6.4012 29.106 6.288C28.753 6.11952 28.3705 6.02168 27.98 6H4C3.35 6 2.996 6.156 2.796 6.29Z" fill="#101828"/>
</symbol>
<symbol id="icon-bathroom" width="32" height="32" viewBox="0 0 32 32" fill="none">
  <path d="M8 29.5C8 29.7967 7.91203 30.0867 7.7472 30.3334C7.58238 30.58 7.34811 30.7723 7.07403 30.8858C6.79994 30.9993 6.49834 31.0291 6.20737 30.9712C5.91639 30.9133 5.64912 30.7704 5.43934 30.5607C5.22956 30.3509 5.0867 30.0836 5.02882 29.7926C4.97094 29.5017 5.00065 29.2001 5.11418 28.926C5.22771 28.6519 5.41997 28.4176 5.66665 28.2528C5.91332 28.088 6.20333 28 6.5 28C6.89783 28 7.27936 28.158 7.56066 28.4393C7.84197 28.7206 8 29.1022 8 29.5ZM10.5 24C10.2033 24 9.91332 24.088 9.66665 24.2528C9.41997 24.4176 9.22771 24.6519 9.11418 24.926C9.00065 25.2001 8.97094 25.5017 9.02882 25.7926C9.0867 26.0836 9.22956 26.3509 9.43934 26.5607C9.64912 26.7704 9.91639 26.9133 10.2074 26.9712C10.4983 27.0291 10.7999 26.9993 11.074 26.8858C11.3481 26.7723 11.5824 26.58 11.7472 26.3334C11.912 26.0867 12 25.7967 12 25.5C12 25.1022 11.842 24.7206 11.5607 24.4393C11.2794 24.158 10.8978 24 10.5 24ZM2.5 24C2.20333 24 1.91332 24.088 1.66665 24.2528C1.41997 24.4176 1.22771 24.6519 1.11418 24.926C1.00065 25.2001 0.970945 25.5017 1.02882 25.7926C1.0867 26.0836 1.22956 26.3509 1.43934 26.5607C1.64912 26.7704 1.91639 26.9133 2.20737 26.9712C2.49834 27.0291 2.79994 26.9993 3.07403 26.8858C3.34811 26.7723 3.58238 26.58 3.74721 26.3334C3.91203 26.0867 4 25.7967 4 25.5C4 25.1022 3.84197 24.7206 3.56066 24.4393C3.27936 24.158 2.89783 24 2.5 24ZM6.5 20C6.20333 20 5.91332 20.088 5.66665 20.2528C5.41997 20.4176 5.22771 20.6519 5.11418 20.926C5.00065 21.2001 4.97094 21.5017 5.02882 21.7926C5.0867 22.0836 5.22956 22.3509 5.43934 22.5607C5.64912 22.7704 5.91639 22.9133 6.20737 22.9712C6.49834 23.0291 6.79994 22.9993 7.07403 22.8858C7.34811 22.7723 7.58238 22.58 7.7472 22.3334C7.91203 22.0867 8 21.7967 8 21.5C8 21.1022 7.84197 20.7206 7.56066 20.4393C7.27936 20.158 6.89783 20 6.5 20ZM32 5C32 5.26522 31.8946 5.51957 31.7071 5.70711C31.5196 5.89464 31.2652 6 31 6H27.4137L23.9325 9.4825L21.225 25.3312C21.1641 25.6933 21.0046 26.0317 20.7642 26.3091C20.5237 26.5866 20.2115 26.7925 19.8617 26.9043C19.512 27.0161 19.1382 27.0295 18.7814 26.943C18.4245 26.8564 18.0984 26.6733 17.8388 26.4137L5.58875 14.1637C5.32875 13.9039 5.14541 13.5774 5.05887 13.2201C4.97233 12.8628 4.98593 12.4886 5.09817 12.1385C5.21042 11.7885 5.41698 11.4761 5.69515 11.2358C5.97333 10.9955 6.31236 10.8365 6.675 10.7763L22.5175 8.0675L26.2925 4.2925C26.3854 4.19967 26.4958 4.12605 26.6171 4.07586C26.7385 4.02568 26.8686 3.9999 27 4H31C31.2652 4 31.5196 4.10536 31.7071 4.29289C31.8946 4.48043 32 4.73478 32 5ZM21.7763 10.2238L7 12.75L19.25 25L21.7763 10.2238Z" fill="#101828"/>
</symbol>
   
    <symbol id="icon-van" width="32" height="32" viewBox="0 0 32 32" fill="none">
<g clip-path="url(#clip0_12164_590)">
<path d="M12 2H2V30H12V2ZM30 2H20V12H30V2ZM30 20V30H20V20H30ZM0 2C0 1.46957 0.210714 0.960859 0.585786 0.585786C0.960859 0.210714 1.46957 0 2 0L12 0C12.5304 0 13.0391 0.210714 13.4142 0.585786C13.7893 0.960859 14 1.46957 14 2V30C14 30.5304 13.7893 31.0391 13.4142 31.4142C13.0391 31.7893 12.5304 32 12 32H2C1.46957 32 0.960859 31.7893 0.585786 31.4142C0.210714 31.0391 0 30.5304 0 30V2ZM18 2C18 1.46957 18.2107 0.960859 18.5858 0.585786C18.9609 0.210714 19.4696 0 20 0L30 0C30.5304 0 31.0391 0.210714 31.4142 0.585786C31.7893 0.960859 32 1.46957 32 2V12C32 12.5304 31.7893 13.0391 31.4142 13.4142C31.0391 13.7893 30.5304 14 30 14H20C19.4696 14 18.9609 13.7893 18.5858 13.4142C18.2107 13.0391 18 12.5304 18 12V2ZM20 18C19.4696 18 18.9609 18.2107 18.5858 18.5858C18.2107 18.9609 18 19.4696 18 20V30C18 30.5304 18.2107 31.0391 18.5858 31.4142C18.9609 31.7893 19.4696 32 20 32H30C30.5304 32 31.0391 31.7893 31.4142 31.4142C31.7893 31.0391 32 30.5304 32 30V20C32 19.4696 31.7893 18.9609 31.4142 18.5858C31.0391 18.2107 30.5304 18 30 18H20Z" fill="#101828"/>
</g>
<defs>
<clipPath id="clip0_12164_590">
<rect width="32" height="32" fill="white"/>
</clipPath>
</defs>
</symbol>
    <symbol id="icon-water" viewBox="0 0 32 32">
      <path stroke-miterlimit="10" stroke-width="2.4" d="M25 20c0 5.523-3.477 9-9 9s-9-3.477-9-9c0-5.927 6.452-13.928 8.431-16.242a.763.763 0 0 1 .57-.263.744.744 0 0 1 .57.263c1.978 2.314 8.43 10.316 8.43 16.242z"/>
      <path stroke-linecap="round" stroke-linejoin="round" stroke-width="2.4" d="M21.5 20.5A4.5 4.5 0 0 1 17 25"/>
    </symbol>
    <symbol id="icon-wc" viewBox="0 0 32 32">
      <path stroke-linecap="round" stroke-linejoin="round" stroke-width="2" d="m5.333 5.333 3.333 3.333M18 8.667a6.6 6.6 0 0 0-9.334 9.334M20 6.667 6.667 20m12 2.667v.013m-5.334-1.347v.013m4-4.013v.013m4-4.013v.013m-6.666 13.321v.013m8-8.013v.013m4-4.013v.013"/>
    </symbol>
    

<symbol id="icon-Rating" width="16" height="16" viewBox="0 0 16 16" fill="none">
  <g clip-path="url(#clip0_12164_420)">
    <path d="M7.55778 0.838169C7.74538 0.482595 8.25462 0.482596 8.44222 0.838169L10.3305 4.41705C10.4028 4.55417 10.5347 4.64997 10.6874 4.67641L14.6747 5.36629C15.0708 5.43484 15.2282 5.91915 14.948 6.20745L12.1277 9.10921C12.0197 9.22039 11.9693 9.3754 11.9914 9.52886L12.5674 13.5341C12.6246 13.932 12.2126 14.2314 11.8519 14.054L8.22062 12.2685C8.0815 12.2001 7.9185 12.2001 7.77938 12.2685L4.14815 14.054C3.78737 14.2314 3.37539 13.932 3.43262 13.5341L4.00861 9.52886C4.03068 9.3754 3.98031 9.22039 3.87226 9.10921L1.05204 6.20745C0.771841 5.91915 0.929206 5.43484 1.32535 5.36629L5.31256 4.67641C5.46533 4.64997 5.59719 4.55417 5.66954 4.41705L7.55778 0.838169Z" fill="#FFC531"/>
  </g>
  <defs>
    <clipPath id="clip0_12164_420">
      <rect width="16" height="16" fill="white"/>
    </clipPath>
  </defs>
</symbol>

       <symbol id="icon-gear" viewBox="0 0 32 32"  stroke="#101828" fill="none">
      <path stroke-linecap="round" stroke-linejoin="round" stroke-width="2.4" d="M22.667 14.667h2a2 2 0 0 0 0-4h-2v6.667m0 5.333V28H24a2.668 2.668 0 0 0 0-5.334h-1.333zM4 6.667a2.668 2.668 0 1 0 5.336 0 2.668 2.668 0 0 0-5.336 0z"/>
      <path stroke-linecap="round" stroke-linejoin="round" stroke-width="2.4" d="M6.667 9.333v4a1.335 1.335 0 0 0 1.334 1.334h4m-.001 0V24a1.33 1.33 0 0 0 1.334 1.333h4M12 14.667h5.333"/>
    </symbol>

    <symbol id="icon-transmission20" width="20" height="20" viewBox="0 0 20 20" fill="none">
  <path fill-rule="evenodd" clip-rule="evenodd" d="M7.5 4.375C7.5 3.87772 7.69754 3.40081 8.04917 3.04917C8.40081 2.69754 8.87772 2.5 9.375 2.5H10.625C11.1223 2.5 11.5992 2.69754 11.9508 3.04917C12.3025 3.40081 12.5 3.87772 12.5 4.375V5.625C12.5 6.12228 12.3025 6.59919 11.9508 6.95083C11.5992 7.30246 11.1223 7.5 10.625 7.5V8.75H17.5C17.6658 8.75 17.8247 8.81585 17.9419 8.93306C18.0592 9.05027 18.125 9.20924 18.125 9.375V10.625C18.125 10.7908 18.0592 10.9497 17.9419 11.0669C17.8247 11.1842 17.6658 11.25 17.5 11.25C17.3342 11.25 17.1753 11.1842 17.0581 11.0669C16.9408 10.9497 16.875 10.7908 16.875 10.625V10H10.625V10.625C10.625 10.7908 10.5592 10.9497 10.4419 11.0669C10.3247 11.1842 10.1658 11.25 10 11.25C9.83424 11.25 9.67527 11.1842 9.55806 11.0669C9.44085 10.9497 9.375 10.7908 9.375 10.625V10H3.125V10.625C3.125 10.7908 3.05915 10.9497 2.94194 11.0669C2.82473 11.1842 2.66576 11.25 2.5 11.25C2.33424 11.25 2.17527 11.1842 2.05806 11.0669C1.94085 10.9497 1.875 10.7908 1.875 10.625V9.375C1.875 9.20924 1.94085 9.05027 2.05806 8.93306C2.17527 8.81585 2.33424 8.75 2.5 8.75H9.375V7.5C8.87772 7.5 8.40081 7.30246 8.04917 6.95083C7.69754 6.59919 7.5 6.12228 7.5 5.625V4.375ZM10.625 6.25C10.7908 6.25 10.9497 6.18415 11.0669 6.06694C11.1842 5.94973 11.25 5.79076 11.25 5.625V4.375C11.25 4.20924 11.1842 4.05027 11.0669 3.93306C10.9497 3.81585 10.7908 3.75 10.625 3.75H9.375C9.20924 3.75 9.05027 3.81585 8.93306 3.93306C8.81585 4.05027 8.75 4.20924 8.75 4.375V5.625C8.75 5.79076 8.81585 5.94973 8.93306 6.06694C9.05027 6.18415 9.20924 6.25 9.375 6.25H10.625ZM0 14.375C0 13.8777 0.197544 13.4008 0.549175 13.0492C0.900805 12.6975 1.37772 12.5 1.875 12.5H3.125C3.62228 12.5 4.09919 12.6975 4.45083 13.0492C4.80246 13.4008 5 13.8777 5 14.375V15.625C5 16.1223 4.80246 16.5992 4.45083 16.9508C4.09919 17.3025 3.62228 17.5 3.125 17.5H1.875C1.37772 17.5 0.900805 17.3025 0.549175 16.9508C0.197544 16.5992 0 16.1223 0 15.625L0 14.375ZM1.875 13.75C1.70924 13.75 1.55027 13.8158 1.43306 13.9331C1.31585 14.0503 1.25 14.2092 1.25 14.375V15.625C1.25 15.7908 1.31585 15.9497 1.43306 16.0669C1.55027 16.1842 1.70924 16.25 1.875 16.25H3.125C3.29076 16.25 3.44973 16.1842 3.56694 16.0669C3.68415 15.9497 3.75 15.7908 3.75 15.625V14.375C3.75 14.2092 3.68415 14.0503 3.56694 13.9331C3.44973 13.8158 3.29076 13.75 3.125 13.75H1.875ZM7.5 14.375C7.5 13.8777 7.69754 13.4008 8.04917 13.0492C8.40081 12.6975 8.87772 12.5 9.375 12.5H10.625C11.1223 12.5 11.5992 12.6975 11.9508 13.0492C12.3025 13.4008 12.5 13.8777 12.5 14.375V15.625C12.5 16.1223 12.3025 16.5992 11.9508 16.9508C11.5992 17.3025 11.1223 17.5 10.625 17.5H9.375C8.87772 17.5 8.40081 17.3025 8.04917 16.9508C7.69754 16.5992 7.5 16.1223 7.5 15.625V14.375ZM9.375 13.75C9.20924 13.75 9.05027 13.8158 8.93306 13.9331C8.81585 14.0503 8.75 14.2092 8.75 14.375V15.625C8.75 15.7908 8.81585 15.9497 8.93306 16.0669C9.05027 16.1842 9.20924 16.25 9.375 16.25H10.625C10.7908 16.25 10.9497 16.1842 11.0669 16.0669C11.1842 15.9497 11.25 15.7908 11.25 15.625V14.375C11.25 14.2092 11.1842 14.0503 11.0669 13.9331C10.9497 13.8158 10.7908 13.75 10.625 13.75H9.375ZM15 14.375C15 13.8777 15.1975 13.4008 15.5492 13.0492C15.9008 12.6975 16.3777 12.5 16.875 12.5H18.125C18.6223 12.5 19.0992 12.6975 19.4508 13.0492C19.8025 13.4008 20 13.8777 20 14.375V15.625C20 16.1223 19.8025 16.5992 19.4508 16.9508C19.0992 17.3025 18.6223 17.5 18.125 17.5H16.875C16.3777 17.5 15.9008 17.3025 15.5492 16.9508C15.1975 16.5992 15 16.1223 15 15.625V14.375ZM16.875 13.75C16.7092 13.75 16.5503 13.8158 16.4331 13.9331C16.3158 14.0503 16.25 14.2092 16.25 14.375V15.625C16.25 15.7908 16.3158 15.9497 16.4331 16.0669C16.5503 16.1842 16.7092 16.25 16.875 16.25H18.125C18.2908 16.25 18.4497 16.1842 18.5669 16.0669C18.6842 15.9497 18.75 15.7908 18.75 15.625V14.375C18.75 14.2092 18.6842 14.0503 18.5669 13.9331C18.4497 13.8158 18.2908 13.75 18.125 13.75H16.875Z" fill="#101828"/>
</symbol>

<symbol id="icon-engine20" width="20" height="20" viewBox="0 0 20 20" fill="none">
  <path d="M3.75 3.125C3.75 2.95924 3.81585 2.80027 3.93306 2.68306C4.05027 2.56585 4.20924 2.5 4.375 2.5H10.625C10.7908 2.5 10.9497 2.56585 11.0669 2.68306C11.1842 2.80027 11.25 2.95924 11.25 3.125V9.375C11.25 9.54076 11.1842 9.69973 11.0669 9.81694C10.9497 9.93415 10.7908 10 10.625 10H4.375C4.20924 10 4.05027 9.93415 3.93306 9.81694C3.81585 9.69973 3.75 9.54076 3.75 9.375V3.125Z" fill="#101828"/>
  <path d="M1.25 2.5C1.25 1.83696 1.51339 1.20107 1.98223 0.732233C2.45107 0.263392 3.08696 0 3.75 0L11.25 0C11.913 0 12.5489 0.263392 13.0178 0.732233C13.4866 1.20107 13.75 1.83696 13.75 2.5V12.5C14.413 12.5 15.0489 12.7634 15.5178 13.2322C15.9866 13.7011 16.25 14.337 16.25 15V15.625C16.25 15.7908 16.3158 15.9497 16.4331 16.0669C16.5503 16.1842 16.7092 16.25 16.875 16.25C17.0408 16.25 17.1997 16.1842 17.3169 16.0669C17.4342 15.9497 17.5 15.7908 17.5 15.625V10H16.875C16.7092 10 16.5503 9.93415 16.4331 9.81694C16.3158 9.69973 16.25 9.54076 16.25 9.375V5.46875C16.25 5.30299 16.3158 5.14402 16.4331 5.02681C16.5503 4.9096 16.7092 4.84375 16.875 4.84375H18.7437C18.73 4.24875 18.6775 3.72625 18.4925 3.31625C18.3935 3.07785 18.2209 2.87729 18 2.74375C17.77 2.60625 17.42 2.5 16.875 2.5C16.7092 2.5 16.5503 2.43415 16.4331 2.31694C16.3158 2.19973 16.25 2.04076 16.25 1.875C16.25 1.70924 16.3158 1.55027 16.4331 1.43306C16.5503 1.31585 16.7092 1.25 16.875 1.25C17.58 1.24833 18.1683 1.38833 18.64 1.67C19.1187 1.955 19.4325 2.35875 19.6325 2.80375C20.0013 3.6225 20 4.635 20 5.405V9.37375C20.0002 9.45593 19.9841 9.53734 19.9528 9.61331C19.9214 9.68928 19.8754 9.75833 19.8174 9.8165C19.7593 9.87467 19.6904 9.92082 19.6145 9.95231C19.5386 9.98379 19.4572 10 19.375 10H18.75V15.625C18.75 16.1223 18.5525 16.5992 18.2008 16.9508C17.8492 17.3025 17.3723 17.5 16.875 17.5C16.3777 17.5 15.9008 17.3025 15.5492 16.9508C15.1975 16.5992 15 16.1223 15 15.625V15C15 14.6685 14.8683 14.3505 14.6339 14.1161C14.3995 13.8817 14.0815 13.75 13.75 13.75V18.75H14.375C14.5408 18.75 14.6997 18.8158 14.8169 18.9331C14.9342 19.0503 15 19.2092 15 19.375C15 19.5408 14.9342 19.6997 14.8169 19.8169C14.6997 19.9342 14.5408 20 14.375 20H0.625C0.45924 20 0.300269 19.9342 0.183058 19.8169C0.065848 19.6997 0 19.5408 0 19.375C0 19.2092 0.065848 19.0503 0.183058 18.9331C0.300269 18.8158 0.45924 18.75 0.625 18.75H1.25V2.5ZM12.5 2.5C12.5 2.16848 12.3683 1.85054 12.1339 1.61612C11.8995 1.3817 11.5815 1.25 11.25 1.25H3.75C3.41848 1.25 3.10054 1.3817 2.86612 1.61612C2.6317 1.85054 2.5 2.16848 2.5 2.5V18.75H12.5V2.5Z" fill="#101828"/>
</symbol>

<symbol id="icon-ac20" width="20" height="20" viewBox="0 0 20 20" fill="none">
  <g clip-path="url(#clip0_12068_447)">
    <path d="M15.625 2.5C14.7962 2.5 14.0013 2.82924 13.4153 3.41529C12.8292 4.00134 12.5 4.7962 12.5 5.625C12.5 5.79076 12.4342 5.94973 12.3169 6.06694C12.1997 6.18415 12.0408 6.25 11.875 6.25C11.7092 6.25 11.5503 6.18415 11.4331 6.06694C11.3158 5.94973 11.25 5.79076 11.25 5.625C11.25 4.75971 11.5066 3.91385 11.9873 3.19438C12.4681 2.47492 13.1513 1.91416 13.9508 1.58303C14.7502 1.2519 15.6299 1.16526 16.4785 1.33407C17.3272 1.50288 18.1067 1.91956 18.7186 2.53141C19.3304 3.14326 19.7471 3.92281 19.9159 4.77148C20.0847 5.62015 19.9981 6.49982 19.667 7.29924C19.3358 8.09867 18.7751 8.78195 18.0556 9.26268C17.3362 9.74341 16.4903 10 15.625 10H0.625C0.45924 10 0.300269 9.93415 0.183058 9.81694C0.065848 9.69973 0 9.54076 0 9.375C0 9.20924 0.065848 9.05027 0.183058 8.93306C0.300269 8.81585 0.45924 8.75 0.625 8.75H15.625C16.4538 8.75 17.2487 8.42076 17.8347 7.83471C18.4208 7.24866 18.75 6.4538 18.75 5.625C18.75 4.7962 18.4208 4.00134 17.8347 3.41529C17.2487 2.82924 16.4538 2.5 15.625 2.5ZM6.875 3.75C6.54348 3.75 6.22554 3.8817 5.99112 4.11612C5.7567 4.35054 5.625 4.66848 5.625 5C5.625 5.16576 5.55915 5.32473 5.44194 5.44194C5.32473 5.55915 5.16576 5.625 5 5.625C4.83424 5.625 4.67527 5.55915 4.55806 5.44194C4.44085 5.32473 4.375 5.16576 4.375 5C4.375 4.50555 4.52162 4.0222 4.79633 3.61108C5.07103 3.19995 5.46148 2.87952 5.91829 2.6903C6.37511 2.50108 6.87777 2.45158 7.36273 2.54804C7.84768 2.6445 8.29314 2.8826 8.64277 3.23223C8.9924 3.58187 9.2305 4.02732 9.32696 4.51228C9.42343 4.99723 9.37392 5.4999 9.1847 5.95671C8.99548 6.41353 8.67505 6.80397 8.26393 7.07868C7.8528 7.35338 7.36945 7.5 6.875 7.5H0.625C0.45924 7.5 0.300269 7.43415 0.183058 7.31694C0.065848 7.19973 0 7.04076 0 6.875C0 6.70924 0.065848 6.55027 0.183058 6.43306C0.300269 6.31585 0.45924 6.25 0.625 6.25H6.875C7.20652 6.25 7.52446 6.11831 7.75888 5.88388C7.9933 5.64946 8.125 5.33152 8.125 5C8.125 4.66848 7.9933 4.35054 7.75888 4.11612C7.52446 3.8817 7.20652 3.75 6.875 3.75ZM0 11.875C0 11.7092 0.065848 11.5503 0.183058 11.4331C0.300269 11.3159 0.45924 11.25 0.625 11.25H13.1775C13.9192 11.25 14.6442 11.4699 15.2609 11.882C15.8776 12.294 16.3582 12.8797 16.642 13.5649C16.9259 14.2502 17.0001 15.0042 16.8554 15.7316C16.7108 16.459 16.3536 17.1272 15.8292 17.6517C15.3047 18.1761 14.6365 18.5333 13.9091 18.6779C13.1817 18.8226 12.4277 18.7484 11.7424 18.4646C11.0572 18.1807 10.4715 17.7001 10.0595 17.0834C9.64743 16.4667 9.4275 15.7417 9.4275 15C9.4275 14.8342 9.49335 14.6753 9.61056 14.5581C9.72777 14.4409 9.88674 14.375 10.0525 14.375C10.2183 14.375 10.3772 14.4409 10.4944 14.5581C10.6117 14.6753 10.6775 14.8342 10.6775 15C10.6775 15.4945 10.8241 15.9778 11.0988 16.3889C11.3735 16.8001 11.764 17.1205 12.2208 17.3097C12.6776 17.4989 13.1803 17.5484 13.6652 17.452C14.1502 17.3555 14.5956 17.1174 14.9453 16.7678C15.2949 16.4181 15.533 15.9727 15.6295 15.4877C15.7259 15.0028 15.6764 14.5001 15.4872 14.0433C15.298 13.5865 14.9775 13.196 14.5664 12.9213C14.1553 12.6466 13.672 12.5 13.1775 12.5H0.625C0.45924 12.5 0.300269 12.4342 0.183058 12.3169C0.065848 12.1997 0 12.0408 0 11.875Z" fill="#101828"/>
  </g>
  <defs>
    <clipPath id="clip0_12068_447">
      <rect width="20" height="20" fill="white"/>
    </clipPath>
  </defs>
</symbol>

<symbol id="icon-bathroom20" width="20" height="20" viewBox="0 0 20 20" fill="none">
  <path d="M5 18.4375C5 18.6229 4.94502 18.8042 4.842 18.9583C4.73899 19.1125 4.59257 19.2327 4.42127 19.3036C4.24996 19.3746 4.06146 19.3932 3.8796 19.357C3.69775 19.3208 3.5307 19.2315 3.39959 19.1004C3.26848 18.9693 3.17919 18.8023 3.14301 18.6204C3.10684 18.4385 3.12541 18.25 3.19636 18.0787C3.26732 17.9074 3.38748 17.761 3.54165 17.658C3.69582 17.555 3.87708 17.5 4.0625 17.5C4.31114 17.5 4.5496 17.5988 4.72541 17.7746C4.90123 17.9504 5 18.1889 5 18.4375ZM6.5625 15C6.37708 15 6.19582 15.055 6.04165 15.158C5.88748 15.261 5.76732 15.4074 5.69636 15.5787C5.62541 15.75 5.60684 15.9385 5.64301 16.1204C5.67919 16.3023 5.76848 16.4693 5.89959 16.6004C6.0307 16.7315 6.19775 16.8208 6.3796 16.857C6.56146 16.8932 6.74996 16.8746 6.92127 16.8036C7.09257 16.7327 7.23899 16.6125 7.342 16.4583C7.44502 16.3042 7.5 16.1229 7.5 15.9375C7.5 15.6889 7.40123 15.4504 7.22541 15.2746C7.0496 15.0988 6.81114 15 6.5625 15ZM1.5625 15C1.37708 15 1.19582 15.055 1.04165 15.158C0.887482 15.261 0.767321 15.4074 0.696363 15.5787C0.625406 15.75 0.606841 15.9385 0.643014 16.1204C0.679188 16.3023 0.768476 16.4693 0.899588 16.6004C1.0307 16.7315 1.19775 16.8208 1.3796 16.857C1.56146 16.8932 1.74996 16.8746 1.92127 16.8036C2.09257 16.7327 2.23899 16.6125 2.342 16.4583C2.44502 16.3042 2.5 16.1229 2.5 15.9375C2.5 15.6889 2.40123 15.4504 2.22541 15.2746C2.0496 15.0988 1.81114 15 1.5625 15ZM4.0625 12.5C3.87708 12.5 3.69582 12.555 3.54165 12.658C3.38748 12.761 3.26732 12.9074 3.19636 13.0787C3.12541 13.25 3.10684 13.4385 3.14301 13.6204C3.17919 13.8023 3.26848 13.9693 3.39959 14.1004C3.5307 14.2315 3.69775 14.3208 3.8796 14.357C4.06146 14.3932 4.24996 14.3746 4.42127 14.3036C4.59257 14.2327 4.73899 14.1125 4.842 13.9583C4.94502 13.8042 5 13.6229 5 13.4375C5 13.1889 4.90123 12.9504 4.72541 12.7746C4.5496 12.5988 4.31114 12.5 4.0625 12.5ZM20 3.125C20 3.29076 19.9342 3.44973 19.8169 3.56694C19.6997 3.68415 19.5408 3.75 19.375 3.75H17.1336L14.9578 5.92656L13.2656 15.832C13.2275 16.0583 13.1279 16.2698 12.9776 16.4432C12.8273 16.6166 12.6322 16.7453 12.4136 16.8152C12.195 16.8851 11.9614 16.8934 11.7384 16.8394C11.5153 16.7853 11.3115 16.6708 11.1492 16.5086L3.49297 8.85234C3.33047 8.68992 3.21588 8.48585 3.16179 8.26255C3.1077 8.03925 3.1162 7.80536 3.18636 7.58658C3.25652 7.3678 3.38561 7.17258 3.55947 7.02238C3.73333 6.87218 3.94522 6.7728 4.17188 6.73516L14.0734 5.04219L16.4328 2.68281C16.4909 2.62479 16.5598 2.57878 16.6357 2.54741C16.7116 2.51605 16.7929 2.49994 16.875 2.5H19.375C19.5408 2.5 19.6997 2.56585 19.8169 2.68306C19.9342 2.80027 20 2.95924 20 3.125ZM13.6102 6.38984L4.375 7.96875L12.0312 15.625L13.6102 6.38984Z" fill="#101828"/>
</symbol>

<symbol id="icon-kitchen20" width="20" height="20" viewBox="0 0 20 20" fill="none">
  <path fill-rule="evenodd" clip-rule="evenodd" d="M0.624998 7.5C0.531477 7.50004 0.439157 7.52106 0.354842 7.56152C0.270527 7.60198 0.196366 7.66085 0.137827 7.73378C0.0792885 7.80672 0.0378632 7.89186 0.016605 7.98293C-0.00465315 8.074 -0.00520222 8.16869 0.0149983 8.26L2.08 17.5525C2.23414 18.2466 2.62034 18.8673 3.17485 19.3123C3.72936 19.7573 4.41903 19.9998 5.13 20H12.37C13.081 19.9998 13.7706 19.7573 14.3251 19.3123C14.8797 18.8673 15.2659 18.2466 15.42 17.5525L15.5837 16.815C16.5399 16.9938 17.5281 16.7941 18.3398 16.2581C19.1515 15.722 19.7231 14.8915 19.934 13.9419C20.1449 12.9923 19.9785 11.9979 19.47 11.1686C18.9615 10.3394 18.1507 9.74018 17.2087 9.4975L17.485 8.26C17.5052 8.16869 17.5047 8.074 17.4834 7.98293C17.4621 7.89186 17.4207 7.80672 17.3622 7.73378C17.3036 7.66085 17.2295 7.60198 17.1452 7.56152C17.0608 7.52106 16.9685 7.50004 16.875 7.5H0.624998ZM16.25 15.625C16.1177 15.6251 15.9856 15.6146 15.855 15.5938L16.9387 10.7212C17.5169 10.8887 18.0152 11.259 18.3424 11.7642C18.6695 12.2694 18.8036 12.8756 18.7198 13.4717C18.6361 14.0677 18.3403 14.6135 17.8866 15.0091C17.433 15.4046 16.8519 15.6233 16.25 15.625ZM3.3 17.2812L1.40375 8.75H16.0962L14.2 17.2812C14.1076 17.6977 13.8759 18.0702 13.5432 18.3373C13.2104 18.6043 12.7966 18.7499 12.37 18.75H5.13C4.70338 18.7499 4.28955 18.6043 3.95684 18.3373C3.62413 18.0702 3.39243 17.6977 3.3 17.2812Z" fill="#101828"/>
  <path d="M5.5 1.00005L5.49625 1.00505L5.47875 1.0288C5.3878 1.15395 5.30271 1.28326 5.22375 1.4163C5.15667 1.52295 5.09776 1.63452 5.0475 1.75005C5.015 1.82505 5.005 1.86505 5.00125 1.8788V1.8838C5.01567 1.9943 5.05452 2.1002 5.115 2.1938C5.20875 2.36005 5.3375 2.5338 5.5 2.75005L5.5125 2.76505C5.66 2.96255 5.8375 3.1988 5.975 3.4438C6.115 3.6938 6.25 4.01255 6.25 4.37505C6.25 4.61005 6.16875 4.83505 6.10125 4.99255C6.029 5.16015 5.94461 5.32225 5.84875 5.47755C5.75069 5.64147 5.64516 5.8008 5.5325 5.95505L5.51 5.9863L5.50375 5.9963L5.50125 5.9988C5.40196 6.13158 5.25399 6.21947 5.0899 6.24315C4.9258 6.26682 4.75902 6.22434 4.62625 6.12505C4.49348 6.02576 4.40558 5.87779 4.38191 5.7137C4.35823 5.5496 4.40071 5.38283 4.5 5.25005L4.50375 5.24505L4.52125 5.2213C4.6122 5.09615 4.69729 4.96685 4.77625 4.8338C4.84333 4.72715 4.90224 4.61558 4.9525 4.50005C4.985 4.42505 4.995 4.38505 4.99875 4.3713C4.98544 4.25917 4.94698 4.15149 4.88625 4.0563C4.77022 3.86237 4.64117 3.67653 4.5 3.50005L4.4875 3.48505C4.31862 3.26919 4.16412 3.04245 4.025 2.8063C3.85475 2.52471 3.76003 2.20396 3.75 1.87505C3.75 1.64005 3.83125 1.41505 3.89875 1.25755C3.9725 1.08505 4.06625 0.915052 4.15125 0.772552C4.25055 0.609417 4.35604 0.450135 4.4675 0.295052L4.49875 0.251303C4.59804 0.118529 4.74601 0.0306355 4.9101 0.00695907C5.0742 -0.0167174 5.24098 0.0257621 5.37375 0.125053C5.50652 0.224343 5.59442 0.372311 5.61809 0.536405C5.64177 0.7005 5.59929 0.867279 5.5 1.00005ZM9.25 1.00005L9.24625 1.00505L9.22875 1.0288C9.1378 1.15395 9.05271 1.28326 8.97375 1.4163C8.90667 1.52295 8.84776 1.63452 8.7975 1.75005C8.765 1.82505 8.755 1.86505 8.75125 1.8788V1.8838C8.76567 1.9943 8.80452 2.1002 8.865 2.1938C8.95875 2.36005 9.0875 2.5338 9.25 2.75005L9.2625 2.76505C9.41 2.96255 9.5875 3.1988 9.725 3.4438C9.865 3.6938 10 4.01255 10 4.37505C10 4.61005 9.91875 4.83505 9.85125 4.99255C9.779 5.16015 9.69461 5.32225 9.59875 5.47755C9.50069 5.64147 9.39516 5.8008 9.2825 5.95505L9.26 5.9863L9.25375 5.9963L9.25125 5.9988C9.15196 6.13158 9.00399 6.21947 8.8399 6.24315C8.6758 6.26682 8.50902 6.22434 8.37625 6.12505C8.24348 6.02576 8.15558 5.87779 8.13191 5.7137C8.10823 5.5496 8.15071 5.38283 8.25 5.25005L8.25375 5.24505L8.27125 5.2213C8.3622 5.09615 8.44729 4.96685 8.52625 4.8338C8.59333 4.72715 8.65224 4.61558 8.7025 4.50005C8.735 4.42505 8.745 4.38505 8.74875 4.3713C8.73544 4.25917 8.69698 4.15149 8.63625 4.0563C8.52022 3.86237 8.39117 3.67653 8.25 3.50005L8.2375 3.48505C8.06862 3.26919 7.91412 3.04245 7.775 2.8063C7.60475 2.52471 7.51003 2.20396 7.5 1.87505C7.5 1.64005 7.58125 1.41505 7.64875 1.25755C7.7225 1.08505 7.81625 0.915052 7.90125 0.772552C8.00055 0.609417 8.10604 0.450135 8.2175 0.295052L8.24875 0.251303C8.34804 0.118529 8.49601 0.0306355 8.6601 0.00695906C8.8242 -0.0167174 8.99098 0.0257621 9.12375 0.125052C9.25652 0.224343 9.34442 0.372311 9.36809 0.536405C9.39177 0.7005 9.34929 0.867279 9.25 1.00005ZM13 1.00005L12.9963 1.00505L12.9788 1.0288C12.8878 1.15395 12.8027 1.28326 12.7238 1.4163C12.6567 1.52295 12.5978 1.63452 12.5475 1.75005C12.515 1.82505 12.505 1.86505 12.5013 1.8788V1.8838C12.5157 1.9943 12.5545 2.1002 12.615 2.1938C12.7087 2.36005 12.8375 2.5338 13 2.75005L13.0125 2.76505C13.16 2.96255 13.3375 3.1988 13.475 3.4438C13.615 3.6938 13.75 4.01255 13.75 4.37505C13.75 4.61005 13.6687 4.83505 13.6012 4.99255C13.529 5.16015 13.4446 5.32225 13.3488 5.47755C13.2511 5.64144 13.146 5.80078 13.0338 5.95505L13.01 5.9863L13.0037 5.9963L13.0013 5.9988C12.902 6.13158 12.754 6.21947 12.5899 6.24315C12.4258 6.26682 12.259 6.22434 12.1263 6.12505C11.9935 6.02576 11.9056 5.87779 11.8819 5.7137C11.8582 5.5496 11.9007 5.38283 12 5.25005L12.0037 5.24505L12.0212 5.2213C12.1122 5.09615 12.1973 4.96685 12.2762 4.8338C12.3433 4.72715 12.4022 4.61558 12.4525 4.50005C12.485 4.42505 12.495 4.38505 12.4987 4.3713C12.4854 4.25917 12.447 4.15149 12.3863 4.0563C12.2702 3.86237 12.1412 3.67653 12 3.50005L11.9875 3.48505C11.8186 3.26919 11.6641 3.04245 11.525 2.8063C11.3547 2.52471 11.26 2.20396 11.25 1.87505C11.25 1.64005 11.3313 1.41505 11.3988 1.25755C11.4725 1.08505 11.5663 0.915052 11.6512 0.772552C11.7505 0.609417 11.856 0.450135 11.9675 0.295052L11.9987 0.251303C12.098 0.118529 12.246 0.0306355 12.4101 0.00695906C12.5742 -0.0167174 12.741 0.0257621 12.8737 0.125052C13.0065 0.224343 13.0944 0.372311 13.1181 0.536405C13.1418 0.7005 13.0993 0.867279 13 1.00005Z" fill="#101828"/>
</symbol>

<symbol id="icon-tv20" width="20" height="20" viewBox="0 0 20 20" fill="none">
  <path d="M0 8C0 8 0 4 4 4H28C28 4 32 4 32 8V20C32 20 32 24 28 24H20C20 25.3333 20.1667 26.3333 20.5 27H22C22.2652 27 22.5196 27.1054 22.7071 27.2929C22.8946 27.4804 23 27.7348 23 28C23 28.2652 22.8946 28.5196 22.7071 28.7071C22.5196 28.8946 22.2652 29 22 29H10C9.73478 29 9.48043 28.8946 9.29289 28.7071C9.10536 28.5196 9 28.2652 9 28C9 27.7348 9.10536 27.4804 9.29289 27.2929C9.48043 27.1054 9.73478 27 10 27H11.5C11.8333 26.3333 12 25.3333 12 24H4C4 24 0 24 0 20V8ZM2.796 6.29C2.57644 6.44309 2.4012 6.65145 2.288 6.894C2.11952 7.24697 2.02168 7.62948 2 8.02V20C2 20.65 2.156 21.004 2.29 21.204C2.43 21.412 2.63133 21.5813 2.894 21.712C3.23168 21.8736 3.59663 21.9706 3.97 21.998L4.02 22H28C28.65 22 29.004 21.844 29.204 21.71C29.4236 21.5569 29.5988 21.3486 29.712 21.106C29.8736 20.7683 29.9706 20.4034 29.998 20.03L30 19.98V8C30 7.35 29.844 6.996 29.71 6.796C29.5569 6.57644 29.3486 6.4012 29.106 6.288C28.753 6.11952 28.3705 6.02168 27.98 6H4C3.35 6 2.996 6.156 2.796 6.29Z" fill="#101828"/>
</symbol>

<symbol id="icon-radio20" width="20" height="20" viewBox="0 0 20 20" fill="none">
  <path d="M8.75 3.125C8.75 2.95924 8.81585 2.80027 8.93306 2.68306C9.05027 2.56585 9.20924 2.5 9.375 2.5H18.125C18.2908 2.5 18.4497 2.56585 18.5669 2.68306C18.6842 2.80027 18.75 2.95924 18.75 3.125V4.375C18.75 4.54076 18.6842 4.69973 18.5669 4.81694C18.4497 4.93415 18.2908 5 18.125 5H9.375C9.20924 5 9.05027 4.93415 8.93306 4.81694C8.81585 4.69973 8.75 4.54076 8.75 4.375V3.125ZM5.58794e-08 15C5.58794e-08 14.0054 0.395088 13.0516 1.09835 12.3483C1.80161 11.6451 2.75544 11.25 3.75 11.25C4.74456 11.25 5.69839 11.6451 6.40165 12.3483C7.10491 13.0516 7.5 14.0054 7.5 15C7.5 15.9946 7.10491 16.9484 6.40165 17.6517C5.69839 18.3549 4.74456 18.75 3.75 18.75C2.75544 18.75 1.80161 18.3549 1.09835 17.6517C0.395088 16.9484 5.58794e-08 15.9946 5.58794e-08 15ZM8.75 13.125C8.75 12.9592 8.81585 12.8003 8.93306 12.6831C9.05027 12.5658 9.20924 12.5 9.375 12.5H18.125C18.2908 12.5 18.4497 12.5658 18.5669 12.6831C18.6842 12.8003 18.75 12.9592 18.75 13.125V14.375C18.75 14.5408 18.6842 14.6997 18.5669 14.8169C18.4497 14.9342 18.2908 15 18.125 15H9.375C9.20924 15 9.05027 14.9342 8.93306 14.8169C8.81585 14.6997 8.75 14.5408 8.75 14.375V13.125ZM8.75 6.875C8.75 6.70924 8.81585 6.55027 8.93306 6.43306C9.05027 6.31585 9.20924 6.25 9.375 6.25H15.625C15.7908 6.25 15.9497 6.31585 16.0669 6.43306C16.1842 6.55027 16.25 6.70924 16.25 6.875C16.25 7.04076 16.1842 7.19973 16.0669 7.31694C15.9497 7.43415 15.7908 7.5 15.625 7.5H9.375C9.20924 7.5 9.05027 7.43415 8.93306 7.31694C8.81585 7.19973 8.75 7.04076 8.75 6.875ZM8.75 16.875C8.75 16.7092 8.81585 16.5503 8.93306 16.4331C9.05027 16.3158 9.20924 16.25 9.375 16.25H15.625C15.7908 16.25 15.9497 16.3158 16.0669 16.4331C16.1842 16.5503 16.25 16.7092 16.25 16.875C16.25 17.0408 16.1842 17.1997 16.0669 17.3169C15.9497 17.4342 15.7908 17.5 15.625 17.5H9.375C9.20924 17.5 9.05027 17.4342 8.93306 17.3169C8.81585 17.1997 8.75 17.0408 8.75 16.875ZM3.75 1.25C3.25754 1.25 2.76991 1.347 2.31494 1.53545C1.85997 1.72391 1.44657 2.00013 1.09835 2.34835C0.75013 2.69657 0.473907 3.10997 0.285452 3.56494C0.0969966 4.01991 0 4.50754 0 5C0 5.49246 0.0969966 5.98009 0.285452 6.43506C0.473907 6.89003 0.75013 7.30343 1.09835 7.65165C1.44657 7.99987 1.85997 8.27609 2.31494 8.46455C2.76991 8.653 3.25754 8.75 3.75 8.75C4.74456 8.75 5.69839 8.35491 6.40165 7.65165C7.10491 6.94839 7.5 5.99456 7.5 5C7.5 4.00544 7.10491 3.05161 6.40165 2.34835C5.69839 1.64509 4.74456 1.25 3.75 1.25ZM3.75 6.875C3.25272 6.875 2.77581 6.67746 2.42417 6.32583C2.07254 5.97419 1.875 5.49728 1.875 5C1.875 4.50272 2.07254 4.02581 2.42417 3.67417C2.77581 3.32254 3.25272 3.125 3.75 3.125C4.24728 3.125 4.72419 3.32254 5.07583 3.67417C5.42746 4.02581 5.625 4.50272 5.625 5C5.625 5.49728 5.42746 5.97419 5.07583 6.32583C4.72419 6.67746 4.24728 6.875 3.75 6.875Z" fill="#101828"/>
</symbol>

<symbol id="icon-refrigerator20" width="20" height="20" viewBox="0 0 20 20" fill="none">
  <path d="M14.7917 5.83331C14.7917 5.66755 14.7258 5.50858 14.6086 5.39137C14.4914 5.27416 14.3324 5.20831 14.1667 5.20831C14.0009 5.20831 13.8419 5.27416 13.7247 5.39137C13.6075 5.50858 13.5417 5.66755 13.5417 5.83331V7.49998C13.5417 7.66574 13.6075 7.82471 13.7247 7.94192C13.8419 8.05913 14.0009 8.12498 14.1667 8.12498C14.3324 8.12498 14.4914 8.05913 14.6086 7.94192C14.7258 7.82471 14.7917 7.66574 14.7917 7.49998V5.83331ZM14.7917 11.6666C14.7917 11.5009 14.7258 11.3419 14.6086 11.2247C14.4914 11.1075 14.3324 11.0416 14.1667 11.0416C14.0009 11.0416 13.8419 11.1075 13.7247 11.2247C13.6075 11.3419 13.5417 11.5009 13.5417 11.6666V13.3333C13.5417 13.4991 13.6075 13.658 13.7247 13.7753C13.8419 13.8925 14.0009 13.9583 14.1667 13.9583C14.3324 13.9583 14.4914 13.8925 14.6086 13.7753C14.7258 13.658 14.7917 13.4991 14.7917 13.3333V11.6666Z" fill="#101828"/>
  <path fill-rule="evenodd" clip-rule="evenodd" d="M10.0467 1.04169H9.95334C8.42168 1.04169 7.20834 1.04169 6.25918 1.16919C5.28251 1.30085 4.49168 1.57752 3.86751 2.20085C3.24418 2.82502 2.96751 3.61585 2.83584 4.59252C2.70834 5.54252 2.70834 6.75502 2.70834 8.28669V10.88C2.70834 12.4117 2.70834 13.625 2.83584 14.5742C2.96751 15.5509 3.24418 16.3417 3.86751 16.9659C4.25084 17.3484 4.69584 17.6 5.20834 17.7684V18.3334C5.20834 18.6784 5.48834 18.9584 5.83334 18.9584H6.66668C6.83244 18.9584 6.99141 18.8925 7.10862 18.7753C7.22583 18.6581 7.29168 18.4991 7.29168 18.3334V18.0867C8.04751 18.125 8.92918 18.125 9.95334 18.125H10.0467C11.0717 18.125 11.9525 18.125 12.7083 18.0867V18.3334C12.7083 18.6784 12.9883 18.9584 13.3333 18.9584H14.1667C14.3324 18.9584 14.4914 18.8925 14.6086 18.7753C14.7258 18.6581 14.7917 18.4991 14.7917 18.3334V17.7684C15.3042 17.6 15.75 17.3484 16.1325 16.9659C16.7558 16.3417 17.0325 15.5509 17.1642 14.5742C17.2917 13.6242 17.2917 12.4117 17.2917 10.88V8.28752C17.2917 6.75585 17.2917 5.54252 17.1642 4.59335C17.0325 3.61669 16.7558 2.82585 16.1325 2.20169C15.5083 1.57835 14.7175 1.30169 13.7408 1.17002C12.7908 1.04252 11.5783 1.04252 10.0467 1.04252M4.75168 3.08502C5.10418 2.73252 5.58751 2.52085 6.42584 2.40835C7.28251 2.29335 8.41084 2.29169 10 2.29169C11.5892 2.29169 12.7183 2.29335 13.575 2.40835C14.4125 2.52085 14.8958 2.73252 15.2483 3.08502C15.6008 3.43752 15.8125 3.92085 15.925 4.75919C16.04 5.61585 16.0417 6.74419 16.0417 8.33335V8.95835H3.95834V8.33335C3.95834 6.74419 3.96001 5.61585 4.07501 4.75835C4.18751 3.92085 4.39918 3.43752 4.75168 3.08502ZM3.95834 10.2084H16.0417V10.8334C16.0417 12.4225 16.04 13.5517 15.925 14.4084C15.8125 15.2459 15.6008 15.7292 15.2483 16.0817C14.8958 16.4342 14.4125 16.6459 13.5742 16.7584C12.7175 16.8734 11.5892 16.875 10 16.875C8.41084 16.875 7.28251 16.8734 6.42501 16.7584C5.58751 16.6459 5.10418 16.4342 4.75168 16.0817C4.39918 15.7292 4.18751 15.2459 4.07501 14.4075C3.96001 13.5517 3.95834 12.4225 3.95834 10.8334V10.2084Z" fill="#101828"/>
</symbol>

<symbol id="icon-microwave20" width="20" height="20" viewBox="0 0 20 20" fill="none">
  <path d="M16.6667 3.33331H3.33335C2.41288 3.33331 1.66669 4.07951 1.66669 4.99998V14.1666C1.66669 15.0871 2.41288 15.8333 3.33335 15.8333H16.6667C17.5872 15.8333 18.3334 15.0871 18.3334 14.1666V4.99998C18.3334 4.07951 17.5872 3.33331 16.6667 3.33331Z" stroke="#101828" stroke-width="1.25" stroke-linecap="round" stroke-linejoin="round"/>
  <path d="M10.8333 6.66669H5.83333C5.3731 6.66669 5 7.03978 5 7.50002V11.6667C5 12.1269 5.3731 12.5 5.83333 12.5H10.8333C11.2936 12.5 11.6667 12.1269 11.6667 11.6667V7.50002C11.6667 7.03978 11.2936 6.66669 10.8333 6.66669Z" stroke="#101828" stroke-width="1.25" stroke-linecap="round" stroke-linejoin="round"/>
  <path d="M15 6.66669V12.5M5 15.8334V17.5M15 15.8334V17.5" stroke="#101828" stroke-width="1.25" stroke-linecap="round" stroke-linejoin="round"/>
</symbol>

<symbol id="icon-gas20" width="20" height="20" viewBox="0 0 20 20" fill="none">
  <g clip-path="url(#clip0_19697_518)">
    <path d="M4.99999 15.8334H8.33332M15 15.8409V15.8334M1.66666 5.00002C1.66666 2.24169 2.24166 1.66669 4.99999 1.66669H15C17.7583 1.66669 18.3333 2.24169 18.3333 5.00002V15C18.3333 17.7584 17.7583 18.3334 15 18.3334H4.99999C2.24166 18.3334 1.66666 17.7584 1.66666 15V5.00002Z" stroke="#101828" stroke-width="1.5" stroke-linecap="round" stroke-linejoin="round"/>
    <path d="M9.99999 11.6667C11.8409 11.6667 13.3333 10.1743 13.3333 8.33333C13.3333 6.49238 11.8409 5 9.99999 5C8.15904 5 6.66666 6.49238 6.66666 8.33333C6.66666 10.1743 8.15904 11.6667 9.99999 11.6667Z" stroke="#101828" stroke-width="1.5" stroke-linecap="round" stroke-linejoin="round"/>
    <path d="M12.9166 8.33335H14.1666M9.99998 11.25V12.5M7.08331 8.33335H5.83331M9.99998 5.41669V4.16669" stroke="#101828" stroke-width="1.5" stroke-linecap="round" stroke-linejoin="round"/>
  </g>
  <defs>
    <clipPath id="clip0_19697_518">
      <rect width="20" height="20" fill="white"/>
    </clipPath>
  </defs>
</symbol>

<symbol id="icon-water20" width="20" height="20" viewBox="0 0 20 20" fill="none">
  <path d="M15.625 12.5C15.625 15.952 13.452 18.125 10 18.125C6.54805 18.125 4.375 15.952 4.375 12.5C4.375 8.79571 8.40742 3.79492 9.64414 2.34844C9.68815 2.29705 9.74276 2.25579 9.80422 2.2275C9.86568 2.19922 9.93254 2.18457 10.0002 2.18457C10.0679 2.18457 10.1347 2.19922 10.1962 2.2275C10.2576 2.25579 10.3122 2.29705 10.3562 2.34844C11.5926 3.79492 15.625 8.79571 15.625 12.5Z" stroke="#101828" stroke-width="1.25" stroke-miterlimit="10"/>
  <path d="M13.4375 12.8125C13.4375 13.5584 13.1412 14.2738 12.6137 14.8012C12.0863 15.3287 11.3709 15.625 10.625 15.625" stroke="#101828" stroke-width="1.25" stroke-linecap="round" stroke-linejoin="round"/>
</symbol>

    <symbol id="logo" width="136" height="16" viewBox="0 0 136 16" fill="none">
  <path d="M135.393 7.1875H131.785C131.766 6.96497 131.688 6.77321 131.55 6.61222C131.413 6.45124 131.235 6.32813 131.018 6.2429C130.804 6.15294 130.568 6.10796 130.307 6.10796C129.971 6.10796 129.682 6.16951 129.441 6.29262C129.199 6.41572 129.081 6.59091 129.086 6.81819C129.081 6.97917 129.15 7.12832 129.292 7.26563C129.438 7.40294 129.72 7.50947 130.137 7.58523L132.353 7.98296C133.47 8.18656 134.301 8.52983 134.846 9.01279C135.395 9.49101 135.672 10.1326 135.677 10.9375C135.672 11.714 135.44 12.3887 134.981 12.9617C134.526 13.5298 133.903 13.9702 133.113 14.2827C132.327 14.5904 131.429 14.7443 130.421 14.7443C128.754 14.7443 127.45 14.4034 126.508 13.7216C125.57 13.0398 125.047 12.1402 124.938 11.0227H128.83C128.882 11.3684 129.053 11.6359 129.341 11.8253C129.635 12.0099 130.004 12.1023 130.449 12.1023C130.809 12.1023 131.105 12.0407 131.337 11.9176C131.574 11.7945 131.695 11.6193 131.699 11.3921C131.695 11.1837 131.59 11.018 131.387 10.8949C131.188 10.7718 130.875 10.6724 130.449 10.5966L128.518 10.2557C127.405 10.0616 126.572 9.69224 126.018 9.14773C125.464 8.60322 125.189 7.90247 125.194 7.04546C125.189 6.28788 125.388 5.64631 125.79 5.12074C126.197 4.59044 126.777 4.18798 127.53 3.91336C128.288 3.634 129.185 3.49432 130.222 3.49432C131.799 3.49432 133.042 3.82103 133.951 4.47444C134.865 5.12785 135.345 6.0322 135.393 7.1875Z" fill="#475467"/>
  <path d="M116.415 11.9602L116.443 7.30114H116.955L119.597 3.63636H124L119.568 9.34659H118.46L116.415 11.9602ZM112.892 14.5455V0H116.813V14.5455H112.892ZM119.625 14.5455L117.125 10.2273L119.682 7.44318L124.114 14.5455H119.625Z" fill="#475467"/>
  <path d="M105.619 14.7443C104.435 14.7443 103.422 14.5099 102.579 14.0412C101.736 13.5677 101.09 12.9096 100.64 12.0668C100.19 11.2192 99.9655 10.2367 99.9655 9.11932C99.9655 8.0019 100.19 7.02178 100.64 6.17898C101.09 5.33144 101.736 4.6733 102.579 4.20455C103.422 3.73107 104.435 3.49432 105.619 3.49432C106.689 3.49432 107.615 3.68845 108.396 4.07671C109.182 4.46023 109.79 5.00474 110.221 5.71023C110.652 6.41099 110.87 7.23485 110.875 8.18182H107.238C107.186 7.60891 107.02 7.1733 106.741 6.875C106.466 6.57197 106.111 6.42046 105.676 6.42046C105.335 6.42046 105.036 6.51989 104.781 6.71875C104.525 6.91288 104.326 7.20881 104.184 7.60654C104.042 7.99953 103.971 8.49432 103.971 9.09091C103.971 9.6875 104.042 10.1847 104.184 10.5824C104.326 10.9754 104.525 11.2713 104.781 11.4702C105.036 11.6643 105.335 11.7614 105.676 11.7614C105.965 11.7614 106.22 11.6951 106.443 11.5625C106.665 11.4252 106.845 11.2263 106.983 10.9659C107.125 10.7008 107.21 10.3788 107.238 10H110.875C110.86 10.9612 110.64 11.7992 110.214 12.5142C109.788 13.2244 109.184 13.7737 108.403 14.1619C107.626 14.5502 106.698 14.7443 105.619 14.7443Z" fill="#475467"/>
  <path d="M94.0487 9.77272V3.63635H97.9692V14.5454H94.2476V12.4716H94.1339C93.8972 13.1676 93.4829 13.7121 92.8911 14.1051C92.2992 14.4934 91.5961 14.6875 90.7817 14.6875C90.0194 14.6875 89.3517 14.5123 88.7788 14.1619C88.2106 13.8115 87.7679 13.3286 87.4507 12.7131C87.1382 12.0975 86.9796 11.392 86.9749 10.5966V3.63635H90.8953V9.77272C90.9 10.3125 91.0374 10.7363 91.3072 11.044C91.5819 11.3518 91.9654 11.5057 92.4578 11.5057C92.7845 11.5057 93.0662 11.437 93.303 11.2997C93.5445 11.1577 93.7291 10.9588 93.857 10.7031C93.9895 10.4427 94.0535 10.1326 94.0487 9.77272Z" fill="#475467"/>
  <path d="M77.903 14.5455V3.63637H81.7098V5.71023H81.8234C82.0223 4.94319 82.3371 4.38211 82.768 4.02699C83.2036 3.67188 83.7126 3.49432 84.295 3.49432C84.4655 3.49432 84.6335 3.50853 84.7993 3.53694C84.9697 3.56061 85.1331 3.59612 85.2893 3.64347V6.98864C85.0952 6.92235 84.8561 6.87264 84.572 6.83949C84.2879 6.80635 84.0441 6.78978 83.8405 6.78978C83.4569 6.78978 83.1113 6.87737 82.8035 7.05256C82.5005 7.22302 82.2614 7.46449 82.0862 7.77699C81.911 8.08476 81.8234 8.44698 81.8234 8.86364V14.5455H77.903Z" fill="#475467"/>
  <path d="M64.4508 3.18182V0H77.0928V3.18182H72.7178V14.5455H68.8258V3.18182H64.4508Z" fill="#475467"/>
  <path d="M62.5079 0V14.5455H58.5874V0H62.5079Z" fill="#101828"/>
  <path d="M51.2467 14.7443C50.0819 14.7443 49.0781 14.5218 48.2353 14.0767C47.3973 13.6269 46.751 12.983 46.2964 12.1449C45.8466 11.3021 45.6217 10.2936 45.6217 9.11932C45.6217 7.99243 45.849 7.00758 46.3035 6.16478C46.7581 5.32197 47.3996 4.6662 48.2282 4.19745C49.0568 3.7287 50.0346 3.49432 51.1615 3.49432C51.9853 3.49432 52.7311 3.62216 53.3987 3.87785C54.0663 4.13353 54.6369 4.50521 55.1103 4.9929C55.5838 5.47586 55.9484 6.06298 56.2041 6.75427C56.4598 7.44555 56.5876 8.22444 56.5876 9.09091V10H46.8433V7.84091H52.9797C52.9749 7.52841 52.8944 7.25379 52.7382 7.01705C52.5867 6.77557 52.3807 6.58855 52.1203 6.45597C51.8646 6.31866 51.5734 6.25 51.2467 6.25C50.9295 6.25 50.6383 6.31866 50.3731 6.45597C50.108 6.58855 49.8949 6.77321 49.7339 7.00995C49.5777 7.24669 49.4948 7.52368 49.4853 7.84091V10.1705C49.4853 10.5208 49.5587 10.8333 49.7055 11.108C49.8523 11.3826 50.063 11.598 50.3376 11.7543C50.6122 11.9105 50.9437 11.9886 51.3319 11.9886C51.6018 11.9886 51.848 11.9508 52.0706 11.875C52.2978 11.7992 52.492 11.6903 52.653 11.5483C52.8139 11.4015 52.9323 11.2263 53.0081 11.0227H56.5876C56.4645 11.7803 56.1733 12.4385 55.714 12.9972C55.2548 13.5511 54.6463 13.982 53.8887 14.2898C53.1359 14.5928 52.2552 14.7443 51.2467 14.7443Z" fill="#101828"/>
  <path d="M44.8364 3.63635L41.1717 14.5454H36.6262L32.9614 3.63635H37.0807L38.8421 10.8523H38.9557L40.7171 3.63635H44.8364Z" fill="#101828"/>
  <path d="M25.056 14.7159C24.36 14.7159 23.7445 14.6023 23.2094 14.375C22.6791 14.143 22.2625 13.7926 21.9594 13.3239C21.6564 12.8551 21.5049 12.2585 21.5049 11.5341C21.5049 10.9375 21.6067 10.4285 21.8103 10.0071C22.0139 9.58097 22.298 9.23296 22.6626 8.96307C23.0271 8.69319 23.4509 8.48722 23.9339 8.34518C24.4216 8.20313 24.9471 8.1108 25.5106 8.06819C26.1214 8.02084 26.6114 7.96402 26.9807 7.89773C27.3548 7.82671 27.6247 7.72964 27.7904 7.60654C27.9561 7.4787 28.039 7.31061 28.039 7.10228V7.07387C28.039 6.78978 27.9301 6.57197 27.7123 6.42046C27.4945 6.26894 27.2151 6.19319 26.8742 6.19319C26.5001 6.19319 26.1948 6.27605 25.958 6.44177C25.726 6.60275 25.5863 6.85133 25.539 7.1875H21.931C21.9784 6.52463 22.1891 5.91383 22.5631 5.35512C22.9419 4.79167 23.4935 4.34186 24.218 4.00569C24.9424 3.66478 25.8467 3.49432 26.931 3.49432C27.7123 3.49432 28.413 3.58665 29.0333 3.77131C29.6536 3.95124 30.1815 4.20455 30.6171 4.53125C31.0527 4.85322 31.3841 5.23201 31.6114 5.66762C31.8434 6.09849 31.9594 6.56724 31.9594 7.07387V14.5455H28.2947V13.0114H28.2094C27.9916 13.4186 27.7265 13.7476 27.414 13.9986C27.1062 14.2495 26.7535 14.4318 26.3557 14.5455C25.9627 14.6591 25.5295 14.7159 25.056 14.7159ZM26.3344 12.2443C26.6327 12.2443 26.9121 12.1828 27.1725 12.0597C27.4376 11.9366 27.6531 11.759 27.8188 11.527C27.9845 11.295 28.0674 11.0133 28.0674 10.6818V9.77273C27.9632 9.81535 27.8519 9.85559 27.7336 9.89347C27.6199 9.93135 27.4968 9.96686 27.3643 10C27.2364 10.0331 27.0991 10.0639 26.9523 10.0923C26.8103 10.1207 26.6611 10.1468 26.5049 10.1705C26.2019 10.2178 25.9533 10.2959 25.7591 10.4048C25.5697 10.509 25.4277 10.6392 25.333 10.7955C25.243 10.947 25.1981 11.1174 25.1981 11.3068C25.1981 11.6099 25.3046 11.8419 25.5177 12.0028C25.7307 12.1638 26.003 12.2443 26.3344 12.2443Z" fill="#101828"/>
  <path d="M13.4521 14.5455V3.63637H17.259V5.71023H17.3726C17.5715 4.94319 17.8863 4.38211 18.3172 4.02699C18.7528 3.67188 19.2618 3.49432 19.8442 3.49432C20.0146 3.49432 20.1827 3.50853 20.3485 3.53694C20.5189 3.56061 20.6823 3.59612 20.8385 3.64347V6.98864C20.6444 6.92235 20.4053 6.87264 20.1212 6.83949C19.8371 6.80635 19.5932 6.78978 19.3896 6.78978C19.0061 6.78978 18.6605 6.87737 18.3527 7.05256C18.0497 7.22302 17.8106 7.46449 17.6354 7.77699C17.4602 8.08476 17.3726 8.44698 17.3726 8.86364V14.5455H13.4521Z" fill="#101828"/>
  <path d="M0 3.18182V0H12.642V3.18182H8.26705V14.5455H4.375V3.18182H0Z" fill="#101828"/>
</symbol>

<symbol id="star-yellow" width="16" height="16" viewBox="0 0 16 16" fill="none">
  <g clip-path="url(#clip0_12187_921)">
    <path d="M7.55778 0.838169C7.74538 0.482595 8.25462 0.482596 8.44222 0.838169L10.3305 4.41705C10.4028 4.55417 10.5347 4.64997 10.6874 4.67641L14.6747 5.36629C15.0708 5.43484 15.2282 5.91915 14.948 6.20745L12.1277 9.10921C12.0197 9.22039 11.9693 9.3754 11.9914 9.52886L12.5674 13.5341C12.6246 13.932 12.2126 14.2314 11.8519 14.054L8.22062 12.2685C8.0815 12.2001 7.9185 12.2001 7.77938 12.2685L4.14815 14.054C3.78737 14.2314 3.37539 13.932 3.43262 13.5341L4.00861 9.52886C4.03068 9.3754 3.98031 9.22039 3.87226 9.10921L1.05204 6.20745C0.771841 5.91915 0.929206 5.43484 1.32535 5.36629L5.31256 4.67641C5.46533 4.64997 5.59719 4.55417 5.66954 4.41705L7.55778 0.838169Z" fill="#FFC531"/>
  </g>
  <defs>
    <clipPath id="clip0_12187_921">
      <rect width="16" height="16" fill="white"/>
    </clipPath>
  </defs>
</symbol>

<symbol id="star-gray" width="16" height="16" viewBox="0 0 16 16" fill="none">
  <g clip-path="url(#clip0_12187_937)">
    <path d="M7.55778 0.838169C7.74538 0.482595 8.25462 0.482596 8.44222 0.838169L10.3305 4.41705C10.4028 4.55417 10.5347 4.64997 10.6874 4.67641L14.6747 5.36629C15.0708 5.43484 15.2282 5.91915 14.948 6.20745L12.1277 9.10921C12.0197 9.22039 11.9693 9.3754 11.9914 9.52886L12.5674 13.5341C12.6246 13.932 12.2126 14.2314 11.8519 14.054L8.22062 12.2685C8.0815 12.2001 7.9185 12.2001 7.77938 12.2685L4.14815 14.054C3.78737 14.2314 3.37539 13.932 3.43262 13.5341L4.00861 9.52886C4.03068 9.3754 3.98031 9.22039 3.87226 9.10921L1.05204 6.20745C0.771841 5.91915 0.929206 5.43484 1.32535 5.36629L5.31256 4.67641C5.46533 4.64997 5.59719 4.55417 5.66954 4.41705L7.55778 0.838169Z" fill="#F2F4F7"/>
  </g>
  <defs>
    <clipPath id="clip0_12187_937">
      <rect width="16" height="16" fill="white"/>
    </clipPath>
  </defs>
</symbol>
  </defs>
</svg>
